<svg width="205" height="52" viewBox="0 0 205 52" fill="none" xmlns="http://www.w3.org/2000/svg">
<path d="M79.96 24.3247C79.96 24.0073 79.9315 23.7184 79.8745 23.458C79.8175 23.1976 79.6955 22.9575 79.5083 22.7378C79.3293 22.5181 79.0648 22.2983 78.7148 22.0786C78.373 21.8589 77.9255 21.631 77.3721 21.395C76.7129 21.1183 76.0741 20.8254 75.4556 20.5161C74.8371 20.1987 74.2796 19.8325 73.7832 19.4175C73.2868 19.0024 72.8921 18.5142 72.5991 17.9526C72.3143 17.383 72.1719 16.7157 72.1719 15.9507C72.1719 15.202 72.3062 14.5225 72.5747 13.9121C72.8514 13.3018 73.242 12.7809 73.7466 12.3496C74.2511 11.9102 74.8411 11.5724 75.5166 11.3364C76.2002 11.1004 76.9611 10.9824 77.7993 10.9824C78.9386 10.9824 79.9233 11.2184 80.7534 11.6904C81.5916 12.1624 82.2386 12.8094 82.6943 13.6313C83.1582 14.4533 83.3901 15.3973 83.3901 16.4634H79.8257C79.8257 15.9588 79.7524 15.5153 79.606 15.1328C79.4676 14.7422 79.2438 14.437 78.9346 14.2173C78.6253 13.9976 78.2266 13.8877 77.7383 13.8877C77.2826 13.8877 76.9041 13.9813 76.603 14.1685C76.3101 14.3475 76.0903 14.5957 75.9438 14.9131C75.8055 15.2223 75.7363 15.5723 75.7363 15.9629C75.7363 16.2559 75.8055 16.5203 75.9438 16.7563C76.0903 16.9842 76.2897 17.1917 76.542 17.3789C76.7943 17.5579 77.0913 17.7329 77.4331 17.9038C77.783 18.0747 78.1655 18.2415 78.5806 18.4043C79.3862 18.7217 80.0983 19.0716 80.7168 19.4541C81.3353 19.8285 81.8521 20.2516 82.2671 20.7236C82.6821 21.1875 82.9954 21.7124 83.207 22.2983C83.4186 22.8843 83.5244 23.5516 83.5244 24.3003C83.5244 25.0409 83.3942 25.7163 83.1338 26.3267C82.8815 26.9289 82.5112 27.4497 82.0229 27.8892C81.5347 28.3205 80.9447 28.6541 80.2529 28.8901C79.5693 29.1261 78.8044 29.2441 77.958 29.2441C77.1361 29.2441 76.3589 29.1302 75.6265 28.9023C74.894 28.6663 74.2471 28.3123 73.6855 27.8403C73.1322 27.3602 72.6968 26.7539 72.3794 26.0215C72.062 25.2809 71.9033 24.4061 71.9033 23.397H75.48C75.48 23.9341 75.5329 24.3939 75.6387 24.7764C75.7445 25.1507 75.9072 25.4518 76.127 25.6797C76.3467 25.8994 76.6152 26.0662 76.9326 26.1802C77.2581 26.286 77.6284 26.3389 78.0435 26.3389C78.5155 26.3389 78.8898 26.2493 79.1665 26.0703C79.4513 25.8913 79.6548 25.6512 79.7769 25.3501C79.8989 25.049 79.96 24.7072 79.96 24.3247ZM89.2129 18.5264V29H85.7827V15.792H89.0054L89.2129 18.5264ZM88.7246 21.9443L87.7847 21.9688C87.7684 21.041 87.8498 20.1865 88.0288 19.4053C88.2078 18.624 88.4764 17.9445 88.8345 17.3667C89.2007 16.7889 89.6605 16.3413 90.2139 16.0239C90.7673 15.7065 91.4142 15.5479 92.1548 15.5479C92.6349 15.5479 93.0785 15.6374 93.4854 15.8164C93.8923 15.9873 94.2463 16.2599 94.5474 16.6343C94.8485 17.0005 95.0804 17.4806 95.2432 18.0747C95.4059 18.6606 95.4873 19.3646 95.4873 20.1865V29H92.0693V20.6016C92.0693 20.0156 92.0124 19.568 91.8984 19.2588C91.7845 18.9414 91.6217 18.7217 91.4102 18.5996C91.1986 18.4694 90.9382 18.4043 90.6289 18.4043C90.3034 18.4043 90.0186 18.4938 89.7744 18.6729C89.5303 18.8519 89.3309 19.1042 89.1763 19.4297C89.0298 19.7471 88.9159 20.1214 88.8345 20.5527C88.7612 20.984 88.7246 21.4479 88.7246 21.9443ZM95.1577 21.6025L93.9248 21.7612C93.9085 20.8905 93.9858 20.0807 94.1567 19.332C94.3276 18.5752 94.5921 17.916 94.9502 17.3545C95.3083 16.7848 95.7559 16.3413 96.293 16.0239C96.8382 15.7065 97.4689 15.5479 98.1851 15.5479C98.7222 15.5479 99.2104 15.6374 99.6499 15.8164C100.089 15.9954 100.464 16.2843 100.773 16.6831C101.09 17.0737 101.33 17.5905 101.493 18.2334C101.664 18.8763 101.75 19.6576 101.75 20.5771V29H98.3193V20.5894C98.3193 19.9953 98.2624 19.5396 98.1484 19.2222C98.0345 18.9048 97.8717 18.6891 97.6602 18.5752C97.4486 18.4613 97.1963 18.4043 96.9033 18.4043C96.6104 18.4043 96.354 18.4857 96.1343 18.6484C95.9227 18.8112 95.7437 19.0391 95.5972 19.332C95.4507 19.6169 95.3408 19.9546 95.2676 20.3452C95.1943 20.7277 95.1577 21.1468 95.1577 21.6025ZM110.148 25.9604V19.8569C110.148 19.4582 110.099 19.1408 110.001 18.9048C109.912 18.6688 109.774 18.4979 109.586 18.3921C109.407 18.2782 109.188 18.2212 108.927 18.2212C108.634 18.2212 108.39 18.2822 108.195 18.4043C108 18.5264 107.853 18.7013 107.755 18.9292C107.666 19.1571 107.621 19.4297 107.621 19.7471H104.191C104.191 19.1774 104.301 18.6403 104.521 18.1357C104.74 17.623 105.062 17.1755 105.485 16.793C105.916 16.4023 106.429 16.0972 107.023 15.8774C107.617 15.6577 108.284 15.5479 109.025 15.5479C109.904 15.5479 110.685 15.6984 111.369 15.9995C112.052 16.2925 112.593 16.7604 112.992 17.4033C113.391 18.0462 113.59 18.8804 113.59 19.9058V25.7896C113.59 26.5301 113.627 27.1323 113.7 27.5962C113.782 28.0601 113.9 28.4588 114.054 28.7925V29H110.612C110.457 28.6338 110.339 28.1781 110.258 27.6328C110.185 27.0794 110.148 26.522 110.148 25.9604ZM110.563 20.9312L110.575 22.9819H109.318C108.992 22.9819 108.708 23.0348 108.463 23.1406C108.227 23.2464 108.028 23.397 107.865 23.5923C107.702 23.7795 107.58 23.9992 107.499 24.2515C107.426 24.5037 107.389 24.7723 107.389 25.0571C107.389 25.3745 107.434 25.6431 107.523 25.8628C107.613 26.0825 107.747 26.2493 107.926 26.3633C108.105 26.4772 108.317 26.5342 108.561 26.5342C108.935 26.5342 109.261 26.4569 109.538 26.3022C109.814 26.1476 110.018 25.9604 110.148 25.7407C110.286 25.521 110.331 25.3175 110.282 25.1304L111.063 26.4609C110.966 26.762 110.832 27.0754 110.661 27.4009C110.498 27.7264 110.29 28.0275 110.038 28.3042C109.786 28.5809 109.472 28.8088 109.098 28.9878C108.732 29.1587 108.297 29.2441 107.792 29.2441C107.084 29.2441 106.437 29.0814 105.851 28.7559C105.265 28.4303 104.801 27.9746 104.459 27.3887C104.126 26.8027 103.959 26.1069 103.959 25.3013C103.959 24.634 104.065 24.0317 104.276 23.4946C104.496 22.9494 104.822 22.4896 105.253 22.1152C105.684 21.7327 106.229 21.4398 106.889 21.2363C107.548 21.0329 108.321 20.9312 109.208 20.9312H110.563ZM119.535 18.7339V29H116.117V15.792H119.34L119.535 18.7339ZM122.648 15.6943L122.599 19.1001C122.444 19.0675 122.257 19.0431 122.038 19.0269C121.826 19.0106 121.639 19.0024 121.476 19.0024C121.094 19.0024 120.768 19.0635 120.5 19.1855C120.231 19.2995 120.007 19.4744 119.828 19.7104C119.657 19.9383 119.527 20.2231 119.438 20.5649C119.348 20.9067 119.295 21.2933 119.279 21.7246L118.632 21.4805C118.632 20.6178 118.697 19.8285 118.827 19.1123C118.965 18.388 119.169 17.7614 119.438 17.2324C119.706 16.6953 120.028 16.2803 120.402 15.9873C120.784 15.6943 121.216 15.5479 121.696 15.5479C121.859 15.5479 122.029 15.5641 122.208 15.5967C122.396 15.6211 122.542 15.6536 122.648 15.6943ZM130.766 15.792V18.3677H124.027V15.792H130.766ZM125.578 12.5327H128.983V24.9717C128.983 25.3379 129.02 25.6187 129.093 25.814C129.167 26.0093 129.276 26.1476 129.423 26.229C129.577 26.3022 129.781 26.3389 130.033 26.3389C130.204 26.3389 130.363 26.3307 130.509 26.3145C130.656 26.29 130.766 26.2656 130.839 26.2412V28.9146C130.57 29.0203 130.285 29.1017 129.984 29.1587C129.691 29.2157 129.341 29.2441 128.935 29.2441C128.251 29.2441 127.657 29.1139 127.152 28.8535C126.656 28.5931 126.269 28.1781 125.993 27.6084C125.716 27.0306 125.578 26.2738 125.578 25.3379V12.5327ZM143.241 29H140.104L140.128 26.0459H143.241C144.104 26.0459 144.775 25.8913 145.255 25.582C145.736 25.2728 146.073 24.7845 146.269 24.1172C146.472 23.4499 146.574 22.575 146.574 21.4927V18.7217C146.574 17.8997 146.521 17.2039 146.415 16.6343C146.309 16.0565 146.13 15.5926 145.878 15.2427C145.626 14.8846 145.288 14.6201 144.865 14.4492C144.442 14.2783 143.917 14.1929 143.29 14.1929H140.043V11.2266H143.29C144.315 11.2266 145.247 11.3934 146.085 11.7271C146.924 12.0607 147.644 12.549 148.246 13.1919C148.848 13.8267 149.312 14.612 149.638 15.5479C149.963 16.4837 150.126 17.5498 150.126 18.7461V21.4927C150.126 22.6971 149.963 23.7632 149.638 24.6909C149.312 25.6187 148.848 26.404 148.246 27.0469C147.652 27.6816 146.932 28.1659 146.085 28.4995C145.239 28.8332 144.291 29 143.241 29ZM142.179 11.2266V29H138.603V11.2266H142.179ZM157.89 29.2441C156.986 29.2441 156.185 29.1058 155.485 28.8291C154.793 28.5524 154.207 28.1536 153.727 27.6328C153.247 27.1038 152.881 26.465 152.628 25.7163C152.376 24.9676 152.25 24.1131 152.25 23.1528V22.0664C152.25 20.9922 152.372 20.0522 152.616 19.2466C152.86 18.4328 153.206 17.7492 153.654 17.1958C154.101 16.6424 154.651 16.2314 155.302 15.9629C155.961 15.6862 156.706 15.5479 157.536 15.5479C158.366 15.5479 159.094 15.6862 159.721 15.9629C160.355 16.2314 160.88 16.6383 161.295 17.1836C161.71 17.7207 162.024 18.388 162.235 19.1855C162.447 19.9831 162.553 20.9108 162.553 21.9688V23.5312H153.703V21.1265H159.196V20.8213C159.196 20.2842 159.139 19.8366 159.025 19.4785C158.911 19.1123 158.732 18.8397 158.488 18.6606C158.244 18.4816 157.918 18.3921 157.511 18.3921C157.169 18.3921 156.881 18.4613 156.645 18.5996C156.409 18.738 156.221 18.9536 156.083 19.2466C155.945 19.5396 155.843 19.922 155.778 20.394C155.713 20.8579 155.68 21.4154 155.68 22.0664V23.1528C155.68 23.7632 155.733 24.2759 155.839 24.6909C155.945 25.0978 156.099 25.4315 156.303 25.6919C156.514 25.9442 156.771 26.1273 157.072 26.2412C157.373 26.347 157.723 26.3999 158.122 26.3999C158.724 26.3999 159.265 26.2941 159.745 26.0825C160.233 25.8628 160.648 25.5658 160.99 25.1914L162.357 27.2666C162.121 27.5758 161.796 27.8851 161.381 28.1943C160.966 28.5036 160.469 28.7559 159.892 28.9512C159.314 29.1465 158.646 29.2441 157.89 29.2441ZM168.253 26.3633L170.377 15.792H173.942L170.316 29H168.18L168.253 26.3633ZM166.996 15.792L169.157 26.3755L169.193 29H167.045L163.419 15.792H166.996ZM179.179 15.792V29H175.749V15.792H179.179ZM175.59 12.374C175.59 11.8451 175.757 11.4097 176.09 11.0679C176.432 10.7179 176.888 10.543 177.458 10.543C178.035 10.543 178.491 10.7179 178.825 11.0679C179.158 11.4097 179.325 11.8451 179.325 12.374C179.325 12.8949 179.154 13.3302 178.812 13.6802C178.479 14.022 178.031 14.1929 177.47 14.1929C176.892 14.1929 176.432 14.022 176.09 13.6802C175.757 13.3302 175.59 12.8949 175.59 12.374ZM186.662 26.3999C186.979 26.3999 187.252 26.3348 187.479 26.2046C187.715 26.0744 187.895 25.8628 188.017 25.5698C188.139 25.2769 188.204 24.8984 188.212 24.4346H191.422C191.422 25.4274 191.211 26.286 190.788 27.0103C190.373 27.7264 189.811 28.2798 189.103 28.6704C188.403 29.0529 187.61 29.2441 186.723 29.2441C185.836 29.2441 185.062 29.1017 184.403 28.8169C183.744 28.5321 183.199 28.117 182.768 27.5718C182.344 27.0265 182.023 26.3633 181.803 25.582C181.592 24.7926 181.486 23.8893 181.486 22.8721V21.9077C181.486 20.9067 181.592 20.0116 181.803 19.2222C182.023 18.4328 182.344 17.7655 182.768 17.2202C183.199 16.675 183.74 16.2599 184.391 15.9751C185.05 15.6903 185.823 15.5479 186.71 15.5479C187.663 15.5479 188.489 15.7472 189.188 16.146C189.888 16.5366 190.434 17.1144 190.824 17.8794C191.223 18.6444 191.422 19.5884 191.422 20.7114H188.212C188.204 20.2069 188.143 19.7878 188.029 19.4541C187.923 19.1123 187.756 18.8519 187.528 18.6729C187.309 18.4857 187.016 18.3921 186.649 18.3921C186.267 18.3921 185.958 18.4735 185.722 18.6362C185.494 18.7909 185.319 19.0187 185.197 19.3198C185.083 19.6128 185.006 19.979 184.965 20.4185C184.924 20.8579 184.904 21.3543 184.904 21.9077V22.8721C184.904 23.4661 184.92 23.9829 184.953 24.4224C184.993 24.8537 185.071 25.2199 185.185 25.521C185.307 25.814 185.482 26.0337 185.709 26.1802C185.945 26.3267 186.263 26.3999 186.662 26.3999ZM198.71 29.2441C197.807 29.2441 197.005 29.1058 196.305 28.8291C195.613 28.5524 195.028 28.1536 194.547 27.6328C194.067 27.1038 193.701 26.465 193.449 25.7163C193.196 24.9676 193.07 24.1131 193.07 23.1528V22.0664C193.07 20.9922 193.192 20.0522 193.437 19.2466C193.681 18.4328 194.027 17.7492 194.474 17.1958C194.922 16.6424 195.471 16.2314 196.122 15.9629C196.781 15.6862 197.526 15.5479 198.356 15.5479C199.186 15.5479 199.914 15.6862 200.541 15.9629C201.176 16.2314 201.701 16.6383 202.116 17.1836C202.531 17.7207 202.844 18.388 203.056 19.1855C203.267 19.9831 203.373 20.9108 203.373 21.9688V23.5312H194.523V21.1265H200.016V20.8213C200.016 20.2842 199.959 19.8366 199.845 19.4785C199.731 19.1123 199.552 18.8397 199.308 18.6606C199.064 18.4816 198.738 18.3921 198.332 18.3921C197.99 18.3921 197.701 18.4613 197.465 18.5996C197.229 18.738 197.042 18.9536 196.903 19.2466C196.765 19.5396 196.663 19.922 196.598 20.394C196.533 20.8579 196.5 21.4154 196.5 22.0664V23.1528C196.5 23.7632 196.553 24.2759 196.659 24.6909C196.765 25.0978 196.92 25.4315 197.123 25.6919C197.335 25.9442 197.591 26.1273 197.892 26.2412C198.193 26.347 198.543 26.3999 198.942 26.3999C199.544 26.3999 200.085 26.2941 200.565 26.0825C201.054 25.8628 201.469 25.5658 201.811 25.1914L203.178 27.2666C202.942 27.5758 202.616 27.8851 202.201 28.1943C201.786 28.5036 201.29 28.7559 200.712 28.9512C200.134 29.1465 199.467 29.2441 198.71 29.2441Z" fill="#203C42"/>
<path d="M73.9473 44.9609L75.2363 40.6602H76.7539L74.2344 47.9609C73.8477 49.0273 73.1914 49.5605 72.2656 49.5605C72.0586 49.5605 71.8301 49.5254 71.5801 49.4551V48.3535L71.8496 48.3711C72.209 48.3711 72.4785 48.3047 72.6582 48.1719C72.8418 48.043 72.9863 47.8242 73.0918 47.5156L73.2969 46.9707L71.0703 40.6602H72.6055L73.9473 44.9609ZM81.3418 45.248L83.2168 40.6602H84.998V47H83.5742V42.8047L81.8281 47H80.8613L79.1094 42.7812V47H77.6855V40.6602H79.4785L81.3418 45.248ZM91.9707 47H90.5469V44.4395H88.0801V47H86.6562V40.6602H88.0801V43.3027H90.5469V40.6602H91.9707V47ZM95.0234 42.6758H96.418C96.9375 42.6758 97.3906 42.7656 97.7773 42.9453C98.1641 43.125 98.457 43.377 98.6562 43.7012C98.8594 44.0254 98.9609 44.4023 98.9609 44.832C98.9609 45.4844 98.7305 46.0078 98.2695 46.4023C97.8086 46.7969 97.1953 46.9961 96.4297 47H93.5996V40.6602H95.0234V42.6758ZM101.439 47H100.016V40.6602H101.439V47ZM95.0234 43.8184V45.8633H96.4121C96.7598 45.8633 97.0332 45.7773 97.2324 45.6055C97.4355 45.4297 97.5371 45.1816 97.5371 44.8613C97.5371 44.541 97.4375 44.2891 97.2383 44.1055C97.043 43.918 96.7773 43.8223 96.4414 43.8184H95.0234ZM105.939 47.1172C105.037 47.1172 104.305 46.834 103.742 46.2676C103.184 45.6973 102.904 44.9395 102.904 43.9941V43.8184C102.904 43.1855 103.025 42.6211 103.268 42.125C103.514 41.625 103.857 41.2363 104.299 40.959C104.74 40.6816 105.232 40.543 105.775 40.543C106.639 40.543 107.305 40.8184 107.773 41.3691C108.246 41.9199 108.482 42.6992 108.482 43.707V44.2812H104.34C104.383 44.8047 104.557 45.2188 104.861 45.5234C105.17 45.8281 105.557 45.9805 106.021 45.9805C106.674 45.9805 107.205 45.7168 107.615 45.1895L108.383 45.9219C108.129 46.3008 107.789 46.5957 107.363 46.8066C106.941 47.0137 106.467 47.1172 105.939 47.1172ZM105.77 41.6855C105.379 41.6855 105.062 41.8223 104.82 42.0957C104.582 42.3691 104.43 42.75 104.363 43.2383H107.076V43.1328C107.045 42.6562 106.918 42.2969 106.695 42.0547C106.473 41.8086 106.164 41.6855 105.77 41.6855ZM117.57 41.791H115.514V47H114.09V41.791H112.057V40.6602H117.57V41.791ZM120.939 47.1172C120.037 47.1172 119.305 46.834 118.742 46.2676C118.184 45.6973 117.904 44.9395 117.904 43.9941V43.8184C117.904 43.1855 118.025 42.6211 118.268 42.125C118.514 41.625 118.857 41.2363 119.299 40.959C119.74 40.6816 120.232 40.543 120.775 40.543C121.639 40.543 122.305 40.8184 122.773 41.3691C123.246 41.9199 123.482 42.6992 123.482 43.707V44.2812H119.34C119.383 44.8047 119.557 45.2188 119.861 45.5234C120.17 45.8281 120.557 45.9805 121.021 45.9805C121.674 45.9805 122.205 45.7168 122.615 45.1895L123.383 45.9219C123.129 46.3008 122.789 46.5957 122.363 46.8066C121.941 47.0137 121.467 47.1172 120.939 47.1172ZM120.77 41.6855C120.379 41.6855 120.062 41.8223 119.82 42.0957C119.582 42.3691 119.43 42.75 119.363 43.2383H122.076V43.1328C122.045 42.6562 121.918 42.2969 121.695 42.0547C121.473 41.8086 121.164 41.6855 120.77 41.6855ZM126.869 42.7461L128.076 40.6602H129.658L127.719 43.7832L129.723 47H128.152L126.887 44.832L125.627 47H124.045L126.049 43.7832L124.115 40.6602H125.686L126.869 42.7461ZM135.998 47H134.574V44.4395H132.107V47H130.684V40.6602H132.107V43.3027H134.574V40.6602H135.998V47ZM137.252 43.7715C137.252 43.1504 137.375 42.5918 137.621 42.0957C137.867 41.5957 138.213 41.2129 138.658 40.9473C139.104 40.6777 139.615 40.543 140.193 40.543C141.049 40.543 141.742 40.8184 142.273 41.3691C142.809 41.9199 143.098 42.6504 143.141 43.5605L143.146 43.8945C143.146 44.5195 143.025 45.0781 142.783 45.5703C142.545 46.0625 142.201 46.4434 141.752 46.7129C141.307 46.9824 140.791 47.1172 140.205 47.1172C139.311 47.1172 138.594 46.8203 138.055 46.2266C137.52 45.6289 137.252 44.834 137.252 43.8418V43.7715ZM138.676 43.8945C138.676 44.5469 138.811 45.0586 139.08 45.4297C139.35 45.7969 139.725 45.9805 140.205 45.9805C140.686 45.9805 141.059 45.793 141.324 45.418C141.594 45.043 141.729 44.4941 141.729 43.7715C141.729 43.1309 141.59 42.623 141.312 42.248C141.039 41.873 140.666 41.6855 140.193 41.6855C139.729 41.6855 139.359 41.8711 139.086 42.2422C138.812 42.6094 138.676 43.1602 138.676 43.8945ZM149.645 40.6602V47H148.221V41.8086H146.428L146.311 44.0176C146.236 45.0801 146.031 45.8438 145.695 46.3086C145.363 46.7695 144.854 47 144.166 47H143.727L143.721 45.8164L144.014 45.7871C144.326 45.7441 144.553 45.5547 144.693 45.2188C144.838 44.8789 144.93 44.2617 144.969 43.3672L145.086 40.6602H149.645ZM150.893 43.7715C150.893 43.1504 151.016 42.5918 151.262 42.0957C151.508 41.5957 151.854 41.2129 152.299 40.9473C152.744 40.6777 153.256 40.543 153.834 40.543C154.689 40.543 155.383 40.8184 155.914 41.3691C156.449 41.9199 156.738 42.6504 156.781 43.5605L156.787 43.8945C156.787 44.5195 156.666 45.0781 156.424 45.5703C156.186 46.0625 155.842 46.4434 155.393 46.7129C154.947 46.9824 154.432 47.1172 153.846 47.1172C152.951 47.1172 152.234 46.8203 151.695 46.2266C151.16 45.6289 150.893 44.834 150.893 43.8418V43.7715ZM152.316 43.8945C152.316 44.5469 152.451 45.0586 152.721 45.4297C152.99 45.7969 153.365 45.9805 153.846 45.9805C154.326 45.9805 154.699 45.793 154.965 45.418C155.234 45.043 155.369 44.4941 155.369 43.7715C155.369 43.1309 155.23 42.623 154.953 42.248C154.68 41.873 154.307 41.6855 153.834 41.6855C153.369 41.6855 153 41.8711 152.727 42.2422C152.453 42.6094 152.316 43.1602 152.316 43.8945ZM162.213 41.8086H159.459V47H158.041V40.6602H162.213V41.8086ZM166.977 40.6602H168.395V47H166.977V42.7695L164.492 47H163.074V40.6602H164.492V44.8906L166.977 40.6602ZM173.867 40.6602H175.285V47H173.867V42.7695L171.383 47H169.965V40.6602H171.383V44.8906L173.867 40.6602Z" fill="#788891"/>
<path d="M32.0668 13.8665C33.1952 13.8665 34.1485 14.5936 34.5073 15.5998H43.4929C43.8517 14.5936 44.805 13.8665 45.9334 13.8665C47.3669 13.8665 48.5334 15.033 48.5334 16.4664C48.5334 17.8999 47.3669 19.0664 45.9334 19.0664C44.805 19.0664 43.8517 18.3392 43.4929 17.3331H34.5064C34.1476 18.3392 33.1943 19.0664 32.0659 19.0664C30.6324 19.0664 29.4659 17.8999 29.4659 16.4664C29.4659 15.033 30.6333 13.8665 32.0668 13.8665ZM45.9334 17.3331C46.411 17.3331 46.8001 16.9448 46.8001 16.4664C46.8001 15.988 46.411 15.5998 45.9334 15.5998C45.4559 15.5998 45.0668 15.988 45.0668 16.4664C45.0668 16.9448 45.4559 17.3331 45.9334 17.3331ZM32.0668 17.3331C32.5443 17.3331 32.9334 16.9448 32.9334 16.4664C32.9334 15.988 32.5443 15.5998 32.0668 15.5998C31.5892 15.5998 31.2001 15.988 31.2001 16.4664C31.2001 16.9448 31.5892 17.3331 32.0668 17.3331Z" fill="#00B2FF"/>
<path d="M25.1333 19.2259V13.8665C25.1333 13.636 25.2243 13.4158 25.3872 13.2538L28.8539 9.78716C29.0159 9.62423 29.2369 9.53323 29.4666 9.53323H32.2261C32.5849 8.52705 33.5382 7.79993 34.6666 7.79993C36.1001 7.79993 37.2666 8.96644 37.2666 10.3999C37.2666 11.8333 36.1001 12.9998 34.6666 12.9998C33.5382 12.9998 32.5849 12.2727 32.2261 11.2665H29.8254L26.8666 14.2253V19.2259C27.8728 19.5847 28.5999 20.538 28.5999 21.6664C28.5999 23.0998 27.4334 24.2663 25.9999 24.2663C24.5665 24.2663 23.3999 23.0998 23.3999 21.6664C23.3999 20.538 24.1271 19.5847 25.1333 19.2259ZM34.6666 11.2665C35.1441 11.2665 35.5333 10.8783 35.5333 10.3999C35.5333 9.92149 35.1441 9.53323 34.6666 9.53323C34.1891 9.53323 33.7999 9.92149 33.7999 10.3999C33.7999 10.8783 34.1891 11.2665 34.6666 11.2665ZM25.9999 22.533C26.4775 22.533 26.8666 22.1448 26.8666 21.6664C26.8666 21.188 26.4775 20.7997 25.9999 20.7997C25.5224 20.7997 25.1333 21.188 25.1333 21.6664C25.1333 22.1448 25.5224 22.533 25.9999 22.533Z" fill="#00B2FF"/>
<path d="M9.53333 22.533C9.93373 22.533 10.3081 22.6309 10.647 22.7938L12.1333 21.3075V12.9998C12.1333 12.7693 12.2243 12.5491 12.3873 12.3871L21.0609 3.7136C20.8979 3.37474 20.8 3.00035 20.8 2.59996C20.8 1.16651 21.9665 0 23.4 0C24.8335 0 26 1.16651 26 2.59996C26 4.0334 24.8335 5.19991 23.4 5.19991C22.9996 5.19991 22.6252 5.10198 22.2863 4.93905L13.8667 13.3586V21.6663C13.8667 21.8968 13.7757 22.117 13.6127 22.279L11.8725 24.0193C12.0354 24.3581 12.1333 24.7325 12.1333 25.1329C12.1333 26.5664 10.9668 27.7329 9.53333 27.7329C8.09987 27.7329 6.93333 26.5664 6.93333 25.1329C6.93333 23.6995 8.09987 22.533 9.53333 22.533ZM23.4 3.46661C23.8775 3.46661 24.2667 3.07835 24.2667 2.59996C24.2667 2.12156 23.8775 1.7333 23.4 1.7333C22.9225 1.7333 22.5333 2.12156 22.5333 2.59996C22.5333 3.07835 22.9225 3.46661 23.4 3.46661ZM9.53333 25.9996C10.0109 25.9996 10.4 25.6113 10.4 25.1329C10.4 24.6545 10.0109 24.2663 9.53333 24.2663C9.0558 24.2663 8.66667 24.6545 8.66667 25.1329C8.66667 25.6113 9.0558 25.9996 9.53333 25.9996Z" fill="#00B2FF"/>
<path d="M1.73328 12.2926V8.66652C1.73328 8.43599 1.82428 8.21586 1.98722 8.0538L8.05388 1.98723C8.21595 1.8243 8.43695 1.7333 8.66662 1.7333H13.1594C13.5182 0.727121 14.4716 0 15.6 0C17.0334 0 18.2 1.16651 18.2 2.59996C18.2 4.0334 17.0334 5.19991 15.6 5.19991C14.4716 5.19991 13.5182 4.47279 13.1594 3.46661H9.02542L3.46662 9.02532V12.2926C4.47282 12.6514 5.19995 13.6047 5.19995 14.7331C5.19995 16.1665 4.03342 17.333 2.59995 17.333C1.16648 17.333 -4.8995e-05 16.1665 -4.8995e-05 14.7331C-4.8995e-05 13.6047 0.727084 12.6514 1.73328 12.2926ZM15.6 3.46661C16.0775 3.46661 16.4666 3.07835 16.4666 2.59996C16.4666 2.12156 16.0775 1.7333 15.6 1.7333C15.1224 1.7333 14.7333 2.12156 14.7333 2.59996C14.7333 3.07835 15.1224 3.46661 15.6 3.46661ZM2.59995 15.5997C3.07748 15.5997 3.46662 15.2115 3.46662 14.7331C3.46662 14.2547 3.07748 13.8664 2.59995 13.8664C2.12242 13.8664 1.73328 14.2547 1.73328 14.7331C1.73328 15.2115 2.12242 15.5997 2.59995 15.5997Z" fill="#00B2FF"/>
<path d="M13.8658 46.9595V34.5066C12.8604 34.1478 12.1333 33.1945 12.1333 32.0661C12.1333 30.6327 13.2998 29.4661 14.7333 29.4661C15.8617 29.4661 16.815 30.1933 17.1738 31.1995H26.1594C26.5182 30.1933 27.4716 29.4661 28.6 29.4661C29.7284 29.4661 30.6817 30.1933 31.0405 31.1995H36.0412L39.2608 27.9798C39.0979 27.641 39 27.2666 39 26.8662C39 25.4327 40.1665 24.2662 41.6 24.2662C43.0334 24.2662 44.2 25.4327 44.2 26.8662C44.2 28.2996 43.0334 29.4661 41.6 29.4661C41.1996 29.4661 40.8252 29.3682 40.4863 29.2053L37.0127 32.6788C36.8506 32.8418 36.6296 32.9328 36.4 32.9328H31.0405C30.6817 33.9389 29.7284 34.6661 28.6 34.6661C27.4716 34.6661 26.5182 33.9389 26.1594 32.9328H17.173C16.9112 33.6668 16.3332 34.2449 15.5991 34.5066V46.9595C16.6053 47.3183 17.3324 48.2716 17.3324 49.4C17.3324 50.8335 16.1659 52 14.7324 52C13.299 52 12.1324 50.8335 12.1324 49.4C12.1324 48.2716 12.8596 47.3183 13.8658 46.9595ZM41.6 27.7328C42.0775 27.7328 42.4666 27.3446 42.4666 26.8662C42.4666 26.3878 42.0775 25.9995 41.6 25.9995C41.1224 25.9995 40.7333 26.3878 40.7333 26.8662C40.7333 27.3446 41.1224 27.7328 41.6 27.7328ZM28.6 32.9328C29.0775 32.9328 29.4666 32.5445 29.4666 32.0661C29.4666 31.5877 29.0775 31.1995 28.6 31.1995C28.1224 31.1995 27.7333 31.5877 27.7333 32.0661C27.7333 32.5445 28.1224 32.9328 28.6 32.9328ZM14.7333 50.2658C15.2108 50.2658 15.6 49.8775 15.6 49.3991C15.6 48.9208 15.2108 48.5325 14.7333 48.5325C14.2558 48.5325 13.8666 48.9208 13.8666 49.3991C13.8666 49.8775 14.2558 50.2658 14.7333 50.2658ZM14.7333 32.9328C15.2108 32.9328 15.6 32.5445 15.6 32.0661C15.6 31.5877 15.2108 31.1995 14.7333 31.1995C14.2558 31.1995 13.8666 31.5877 13.8666 32.0661C13.8666 32.5445 14.2558 32.9328 14.7333 32.9328Z" fill="#00B2FF"/>
<path d="M18.2 17.4925V14.7331C18.2 14.5026 18.291 14.2824 18.4539 14.1204L28.8609 3.7136C28.6979 3.37474 28.6 3.00035 28.6 2.59996C28.6 1.16651 29.7665 0 31.2 0C32.3284 0 33.2817 0.727121 33.6405 1.7333H37.2667C37.7451 1.7333 38.1333 2.1207 38.1333 2.59996V4.84112L41.353 8.06073C41.6919 7.8978 42.0663 7.79987 42.4667 7.79987C43.9001 7.79987 45.0667 8.96638 45.0667 10.3998C45.0667 11.8333 43.9001 12.9998 42.4667 12.9998C41.0332 12.9998 39.8667 11.8333 39.8667 10.3998C39.8667 9.99943 39.9646 9.62504 40.1275 9.28618L36.6539 5.81264C36.491 5.65057 36.4 5.43044 36.4 5.19991V3.46661H33.6405C33.2817 4.47279 32.3284 5.19991 31.2 5.19991C30.7996 5.19991 30.4252 5.10198 30.0863 4.93905L19.9333 15.0919V17.4925C20.9395 17.8513 21.6667 18.8046 21.6667 19.933C21.6667 21.3664 20.5001 22.533 19.0667 22.533C17.6332 22.533 16.4667 21.3664 16.4667 19.933C16.4667 18.8046 17.1938 17.8513 18.2 17.4925ZM42.4667 11.2665C42.9442 11.2665 43.3333 10.8782 43.3333 10.3998C43.3333 9.92143 42.9442 9.53317 42.4667 9.53317C41.9891 9.53317 41.6 9.92143 41.6 10.3998C41.6 10.8782 41.9891 11.2665 42.4667 11.2665ZM31.2 3.46661C31.6775 3.46661 32.0667 3.07835 32.0667 2.59996C32.0667 2.12156 31.6775 1.7333 31.2 1.7333C30.7225 1.7333 30.3333 2.12156 30.3333 2.59996C30.3333 3.07835 30.7225 3.46661 31.2 3.46661ZM19.0667 20.7997C19.5442 20.7997 19.9333 20.4114 19.9333 19.933C19.9333 19.4546 19.5442 19.0663 19.0667 19.0663C18.5891 19.0663 18.2 19.4546 18.2 19.933C18.2 20.4114 18.5891 20.7997 19.0667 20.7997Z" fill="#00B2FF"/>
<path d="M20.8 24.2663C21.9284 24.2663 22.8817 24.9934 23.2405 25.9996H33.4412L38.3873 21.0536C38.5493 20.8907 38.7703 20.7997 39 20.7997H48.1745L50.2667 18.7076V11.6253L43.5803 4.93905C43.2415 5.10198 42.8671 5.19991 42.4667 5.19991C41.0332 5.19991 39.8667 4.0334 39.8667 2.59996C39.8667 1.16651 41.0332 0 42.4667 0C43.9001 0 45.0667 1.16651 45.0667 2.59996C45.0667 3.00035 44.9687 3.37474 44.8058 3.7136L51.7461 10.6538C51.909 10.8158 52 11.0359 52 11.2665V19.0663C52 19.2969 51.909 19.517 51.7461 19.6791L49.1461 22.279C48.984 22.442 48.763 22.533 48.5333 22.533H39.3588L34.4127 27.4789C34.2507 27.6419 34.0297 27.7329 33.8 27.7329H23.2405C22.8817 28.7391 21.9284 29.4662 20.8 29.4662C19.3665 29.4662 18.2 28.2997 18.2 26.8662C18.2 25.4328 19.3665 24.2663 20.8 24.2663ZM42.4667 1.7333C41.9891 1.7333 41.6 2.12156 41.6 2.59996C41.6 3.07835 41.9891 3.46661 42.4667 3.46661C42.9442 3.46661 43.3333 3.07835 43.3333 2.59996C43.3333 2.12156 42.9442 1.7333 42.4667 1.7333ZM20.8 27.7329C21.2775 27.7329 21.6667 27.3446 21.6667 26.8662C21.6667 26.3878 21.2775 25.9996 20.8 25.9996C20.3225 25.9996 19.9333 26.3878 19.9333 26.8662C19.9333 27.3446 20.3225 27.7329 20.8 27.7329Z" fill="#00B2FF"/>
<path d="M2.59997 20.7997C3.00037 20.7997 3.37477 20.8976 3.71363 21.0606L6.9333 17.841V12.8404C5.9271 12.4816 5.19997 11.5283 5.19997 10.3999C5.19997 8.96644 6.3665 7.79993 7.79997 7.79993C9.23343 7.79993 10.4 8.96644 10.4 10.3999C10.4 11.5283 9.67283 12.4816 8.66663 12.8404V18.1998C8.66663 18.4303 8.57563 18.6504 8.4127 18.8125L4.9391 22.286C5.10204 22.6249 5.19997 22.9993 5.19997 23.3997C5.19997 24.528 4.47283 25.4814 3.46663 25.8402V26.5075L10.146 33.1868C10.309 33.3488 10.4 33.569 10.4 33.7995V34.8256C11.4062 35.1844 12.1333 36.1377 12.1333 37.2661C12.1333 38.3945 11.4062 39.3478 10.4 39.7066V41.7597C11.4062 42.1185 12.1333 43.0718 12.1333 44.2002C12.1333 45.6336 10.9668 46.8001 9.5333 46.8001C8.09983 46.8001 6.9333 45.6336 6.9333 44.2002C6.9333 43.0718 7.66043 42.1185 8.66663 41.7597V39.7066C7.66043 39.3478 6.9333 38.3945 6.9333 37.2661C6.9333 36.1377 7.66043 35.1844 8.66663 34.8256V34.1583L1.98723 27.479C1.8243 27.3169 1.7333 27.0968 1.7333 26.8663V25.8402C0.727101 25.4814 -3.26633e-05 24.528 -3.26633e-05 23.3997C-3.26633e-05 21.9662 1.1665 20.7997 2.59997 20.7997ZM7.79997 11.2665C8.2775 11.2665 8.66663 10.8783 8.66663 10.3999C8.66663 9.92149 8.2775 9.53323 7.79997 9.53323C7.32243 9.53323 6.9333 9.92149 6.9333 10.3999C6.9333 10.8783 7.32243 11.2665 7.79997 11.2665ZM9.5333 45.066C10.0108 45.066 10.4 44.6777 10.4 44.1993C10.4 43.7209 10.0108 43.3327 9.5333 43.3327C9.05577 43.3327 8.66663 43.7209 8.66663 44.1993C8.66663 44.6777 9.05577 45.066 9.5333 45.066ZM9.5333 38.1328C10.0108 38.1328 10.4 37.7445 10.4 37.2661C10.4 36.7877 10.0108 36.3995 9.5333 36.3995C9.05577 36.3995 8.66663 36.7877 8.66663 37.2661C8.66663 37.7445 9.05577 38.1328 9.5333 38.1328ZM2.59997 24.2663C3.0775 24.2663 3.46663 23.8781 3.46663 23.3997C3.46663 22.9213 3.0775 22.533 2.59997 22.533C2.12243 22.533 1.7333 22.9213 1.7333 23.3997C1.7333 23.8781 2.12243 24.2663 2.59997 24.2663Z" fill="#00B2FF"/>
</svg>
