<svg width="9" height="9" viewBox="0 0 9 9" fill="none" xmlns="http://www.w3.org/2000/svg">
<path d="M8.10985 1.50466C8.35528 1.26056 8.35528 0.864752 8.10985 0.62059C7.86435 0.37649 7.4665 0.37649 7.22094 0.62059L6.85905 0.98052C5.89272 0.386868 4.65279 0.466567 3.86898 1.246C3.41199 1.7005 3.17818 2.31772 3.21061 2.98388C3.24198 3.62723 3.52053 4.24139 3.99487 4.71314C3.99493 4.71321 3.99499 4.71321 3.99499 4.71327C4.5005 5.21628 4.55694 5.9784 4.12076 6.41221C3.68438 6.84609 2.91798 6.78989 2.41228 6.28707C1.90658 5.78406 1.85014 5.02182 2.28639 4.58788C2.53182 4.34378 2.53182 3.94797 2.28639 3.7038C2.0409 3.45971 1.64305 3.45971 1.39749 3.7038C0.613739 4.4833 0.533667 5.71648 1.13056 6.67763L0.701165 7.10463C0.455732 7.34873 0.455732 7.74454 0.701165 7.9887C0.824227 8.11091 0.985062 8.17192 1.1459 8.17192C1.3068 8.17192 1.46757 8.11084 1.59032 7.98883L2.01997 7.56151C2.4422 7.82086 2.91647 7.95226 3.38232 7.95226C3.98249 7.9522 4.56845 7.7351 5.00972 7.29628C5.93589 6.37508 5.87958 4.82016 4.88433 3.8297C4.88415 3.82951 4.88402 3.82932 4.88383 3.82914C4.63079 3.57747 4.48246 3.25586 4.46625 2.92337C4.45123 2.61383 4.55474 2.3321 4.75794 2.13007C5.19413 1.69619 5.96041 1.75232 6.46617 2.25509C6.46623 2.25515 6.46623 2.25521 6.46629 2.25527C6.46636 2.25534 6.46642 2.25534 6.46642 2.25534C6.97199 2.75835 7.02837 3.52046 6.59212 3.95434C6.34669 4.19844 6.34669 4.59425 6.59212 4.83841C6.71487 4.96049 6.8757 5.0215 7.03654 5.0215C7.19738 5.0215 7.35821 4.96049 7.48096 4.83841C8.26471 4.05886 8.34485 2.82567 7.74795 1.86459L8.10985 1.50466Z" fill="#00B2FF"/>
</svg>
