<?xml version="1.0" encoding="UTF-8"?><!DOCTYPE svg PUBLIC "-//W3C//DTD SVG 1.1//EN" "http://www.w3.org/Graphics/SVG/1.1/DTD/svg11.dtd"><svg xmlns="http://www.w3.org/2000/svg" xmlns:xlink="http://www.w3.org/1999/xlink"><symbol id="arrow"><g fill="none"><path d="m1 8.5 4-4-4-4" stroke="#fff" stroke-linejoin="round"/></g></symbol><symbol id="checkbox"><g fill="none"><path d="m.5 2 3 3L8 .5" stroke="#fff"/></g></symbol><symbol id="classmates"><g fill="none"><path d="M13.851 10.957c1.016 0 1.806-.836 1.787-1.746.019-.91-.752-1.764-1.768-1.764-.978 0-1.787.78-1.787 1.746 0 .965.79 1.764 1.768 1.764Z" fill="#CDCDCD"/><path d="M13.701 0C6.441 0 .535 5.831.535 13c0 7.187 5.906 13 13.166 13 7.279 0 13.166-5.831 13.166-13C26.885 5.83 20.98 0 13.7 0Zm.188 4.921c2.37 0 4.326 1.932 4.307 4.29 0 2.377-1.975 4.29-4.382 4.253-2.37-.037-4.27-1.95-4.27-4.271 0-2.359 1.938-4.272 4.345-4.272Zm4.834 10.029c0 .037-.019.056-.019.093a1.213 1.213 0 0 1-.564.873c-.207.13-.433.26-.659.371a8.55 8.55 0 0 1-1.786.65c-.075.019-.075.019-.02.074l1.035 1.022 1.317 1.3c.62.613.451 1.634-.339 2.006-.131.074-.282.092-.432.13h-.245c-.019 0-.037 0-.037-.02-.301-.036-.546-.185-.771-.39l-2.276-2.246c-.057-.056-.057-.056-.113 0l-2.295 2.265c-.131.13-.263.223-.432.298-.113.055-.245.074-.358.092h-.244c-.038 0-.057-.018-.094-.018-.508-.093-.847-.372-.997-.854-.15-.483-.038-.91.32-1.263l.94-.929 1.392-1.374c.056-.056.056-.056-.019-.074-.019 0-.056-.019-.075-.019a8.182 8.182 0 0 1-2.351-.984c-.433-.279-.64-.687-.583-1.189.094-.928 1.147-1.43 1.937-.928.15.092.282.167.451.241a5.413 5.413 0 0 0 2.746.557c.47-.018.94-.111 1.411-.26.451-.148.846-.353 1.26-.575.677-.39 1.561-.075 1.825.65.037.11.056.204.075.315v.186Z" fill="#CDCDCD"/></g></symbol><symbol id="detective"><g fill="none"><path d="M15.102 8.184a.592.592 0 0 0-.59.594c0 .328.264.594.59.594.326 0 .59-.266.59-.594a.592.592 0 0 0-.59-.594Z" fill="#00B2FF"/><path d="M28.435 11.747h-2.296C24.93 8.27 23.174 2.17 19.993.444c-1.59-.862-3.095-.26-3.66.964-.24.52-.721.793-1.23.793-.517 0-.994-.28-1.232-.793C13.326.226 11.858-.43 10.323.32c-3.231 1.58-5.038 7.924-6.258 11.428H1.77c-.978 0-1.77.797-1.77 1.782 0 .982.794 1.782 1.77 1.782h26.665c.978 0 1.77-.798 1.77-1.782 0-.982-.794-1.782-1.77-1.782ZM6.138 9.372h6.604c.326 0 .59-.266.59-.594a.592.592 0 0 0-.59-.594H6.55C8.328 3.24 9.99 1.802 10.84 1.387c.926-.452 1.688-.073 1.963.522a2.514 2.514 0 0 0 2.3 1.48c.975 0 1.87-.546 2.3-1.48.284-.612 1.05-.951 2.031-.42.853.464 2.51 1.948 4.221 6.695h-6.192a.592.592 0 0 0-.59.594c0 .328.264.594.59.594h6.605c.298.866.608 1.76.822 2.375H5.315c.214-.614.523-1.506.823-2.375Zm22.297 4.75H1.77a.593.593 0 0 1-.59-.593c0-.328.264-.594.59-.594h26.665c.325 0 .59.266.59.594a.592.592 0 0 1-.59.594ZM13.922 17.686H4.483a.592.592 0 0 0-.59.594v2.375c0 2.947 2.382 5.345 5.31 5.345a5.299 5.299 0 0 0 4.963-3.443 2.25 2.25 0 0 1 1.873 0A5.299 5.299 0 0 0 21.002 26c2.927 0 5.309-2.398 5.309-5.345V18.28a.592.592 0 0 0-.59-.594h-9.439a.592.592 0 0 0-.59.594v.593h-1.18v-.593a.592.592 0 0 0-.59-.594Zm-4.72 7.126c-2.276 0-4.129-1.865-4.129-4.157v-1.781h8.26v1.781c0 2.298-1.843 4.157-4.13 4.157Zm7.67-5.938h8.26v1.781c0 2.292-1.853 4.157-4.13 4.157-2.293 0-4.13-1.864-4.13-4.157v-1.781Zm-1.18 1.187v.594c0 .19.011.38.03.567a3.43 3.43 0 0 0-1.24 0c.02-.188.03-.377.03-.567v-.594h1.18Z" fill="#00B2FF"/><path d="M9.202 22.437c-.976 0-1.77-.8-1.77-1.782a.592.592 0 0 0-.59-.594.592.592 0 0 0-.59.594c0 1.637 1.324 2.97 2.95 2.97.326 0 .59-.267.59-.594a.592.592 0 0 0-.59-.594ZM21.002 23.625c1.627 0 2.95-1.333 2.95-2.97a.592.592 0 0 0-.59-.594.592.592 0 0 0-.59.594c0 .982-.794 1.782-1.77 1.782a.592.592 0 0 0-.59.594c0 .327.264.594.59.594Z" fill="#00B2FF"/></g></symbol><symbol id="facebook"><g fill="none"><path fill-rule="evenodd" clip-rule="evenodd" d="M27 13.5C27 6.045 20.956 0 13.5 0S0 6.045 0 13.5C0 20.956 6.044 27 13.5 27S27 20.956 27 13.5ZM16.884 9.294h-1.74c-.469 0-.798.397-.798.891v.775h2.485l-.402 2.517h-2.083v6.747h-2.543v-6.747h-1.688V10.96h1.688V9.677h.004c.045-1.463.553-2.856 3.031-2.944v-.01h2.046v2.571Z" fill="#CDCDCD"/></g></symbol><symbol id="hired"><g fill="none"><path d="M28.236 25.502c.339-.474.54-1.055.54-1.684v-3.756a.621.621 0 0 0-.618-.625h-2.76c-1.275 0-2.313 1.051-2.313 2.342v2.04c0 .627.2 1.208.54 1.682a3.94 3.94 0 0 0-1.208.407 5.243 5.243 0 0 0-3.878-2.34l-.019-.005a3.7 3.7 0 0 0 .93-2.459V16a.621.621 0 0 0-.617-.625h-3.75c-1.612 0-2.923 1.327-2.923 2.958v2.771a3.7 3.7 0 0 0 .93 2.459l-.019.005a5.243 5.243 0 0 0-3.878 2.34 3.946 3.946 0 0 0-1.207-.407 2.888 2.888 0 0 0 .539-1.683v-3.756a.621.621 0 0 0-.617-.625h-2.76c-1.275 0-2.313 1.051-2.313 2.342v2.04c0 .628.2 1.21.54 1.683C1.462 25.818 0 27.501 0 29.523v1.852c0 .345.276.625.617.625h30.376c.341 0 .617-.28.617-.625v-1.852c0-2.022-1.463-3.705-3.374-4.02ZM4.07 21.78c0-.602.484-1.091 1.078-1.091H7.29v.76c0 .374-.3.678-.668.678H4.07v-.347Zm0 1.596h2.552c.235 0 .46-.043.668-.123v.566c0 .899-.722 1.63-1.61 1.63-.888 0-1.61-.731-1.61-1.63v-.443Zm2.008 3.323-.398.403-.398-.403h.796Zm2.23 2.16v1.892H1.234v-1.227a2.82 2.82 0 0 1 2.338-2.787l1.67 1.69a.614.614 0 0 0 .874 0l1.67-1.69c.296.048.58.144.844.285a5.347 5.347 0 0 0-.324 1.837Zm7.497-5.314c-1.329 0-2.41-1.094-2.41-2.44v-.826h3.69c.41 0 .794-.105 1.13-.291v1.117c0 1.346-1.08 2.44-2.41 2.44Zm1.076 1.25-1.076 1.09-1.076-1.09h2.152Zm-3.486-6.46a1.7 1.7 0 0 1 1.688-1.709h3.132v1.259c0 .631-.507 1.144-1.13 1.144h-3.69v-.695ZM22.07 30.75H9.541V29.5h4.02c.341 0 .618-.28.618-.625a.621.621 0 0 0-.618-.625H9.587c.265-1.776 1.67-3.178 3.433-3.418l2.349 2.377a.612.612 0 0 0 .873 0l2.349-2.377c1.96.266 3.477 1.97 3.477 4.026v1.892Zm2.251-8.97c0-.603.484-1.093 1.079-1.093h2.142v.762c0 .373-.3.677-.669.677H24.32v-.347Zm0 1.595h2.552c.235 0 .46-.043.669-.123v.566c0 .899-.723 1.63-1.61 1.63-.888 0-1.61-.731-1.61-1.63v-.443Zm2.008 3.323-.398.403-.398-.403h.796Zm-3.025 4.052v-1.892c0-.645-.114-1.264-.323-1.837.264-.141.548-.237.843-.286l1.67 1.692a.614.614 0 0 0 .874 0l1.67-1.691a2.82 2.82 0 0 1 2.339 2.787v1.227h-7.073ZM18.848 4.084a.612.612 0 0 0-.873 0l-3.03 3.067-1.309-1.326a.612.612 0 0 0-.873 0 .63.63 0 0 0 0 .884l1.746 1.767a.614.614 0 0 0 .873 0l3.466-3.509a.63.63 0 0 0 0-.883Z" fill="#00B2FF"/><path d="M18.33.542a.615.615 0 0 0-.814.316.628.628 0 0 0 .312.826 5.042 5.042 0 0 1 2.947 4.596c0 2.773-2.229 5.03-4.968 5.03-2.74 0-4.97-2.257-4.97-5.03a5.046 5.046 0 0 1 2.927-4.587.628.628 0 0 0 .308-.827.614.614 0 0 0-.816-.312c-2.22 1.014-3.653 3.262-3.653 5.726 0 3.463 2.783 6.28 6.204 6.28 3.42 0 6.203-2.817 6.203-6.28 0-2.477-1.444-4.73-3.68-5.738Z" fill="#00B2FF"/><path d="M15.828 0h-.023c-.34 0-.617.28-.617.625s.276.625.617.625h.02c.34 0 .615-.278.617-.622A.621.621 0 0 0 15.828 0ZM16.242 28.433a.618.618 0 0 0-.437-.183.618.618 0 0 0-.617.625.619.619 0 0 0 .617.625.618.618 0 0 0 .618-.625.634.634 0 0 0-.181-.442Z" fill="#00B2FF"/></g></symbol><symbol id="logo"><g fill="none"><path d="M32.067 13.867c1.128 0 2.081.727 2.44 1.733h8.986a2.596 2.596 0 0 1 2.44-1.733c1.434 0 2.6 1.166 2.6 2.6 0 1.433-1.166 2.6-2.6 2.6a2.597 2.597 0 0 1-2.44-1.734h-8.987a2.597 2.597 0 0 1-2.44 1.733 2.603 2.603 0 0 1-2.6-2.6c0-1.433 1.167-2.6 2.6-2.6Zm13.866 3.466a.868.868 0 0 0 0-1.733.867.867 0 0 0 0 1.733Zm-13.866 0a.868.868 0 1 0-.002-1.735.868.868 0 0 0 .002 1.735Z" fill="#00B2FF"/><path d="M25.133 19.226v-5.36c0-.23.091-.45.254-.612l3.467-3.467a.864.864 0 0 1 .613-.254h2.76a2.596 2.596 0 0 1 2.44-1.733c1.433 0 2.6 1.166 2.6 2.6 0 1.433-1.167 2.6-2.6 2.6a2.596 2.596 0 0 1-2.44-1.733h-2.402l-2.958 2.958v5a2.596 2.596 0 0 1 1.733 2.441c0 1.434-1.167 2.6-2.6 2.6a2.603 2.603 0 0 1-2.6-2.6c0-1.128.727-2.081 1.733-2.44Zm9.534-7.96a.868.868 0 1 0-.002-1.735.868.868 0 0 0 .002 1.736ZM26 22.534a.867.867 0 1 0-.002-1.735.867.867 0 0 0 .002 1.735ZM9.533 22.533c.4 0 .775.098 1.114.26l1.486-1.485V13c0-.23.091-.45.254-.613l8.674-8.673A2.556 2.556 0 0 1 20.8 2.6c0-1.433 1.166-2.6 2.6-2.6C24.834 0 26 1.167 26 2.6s-1.166 2.6-2.6 2.6c-.4 0-.775-.098-1.114-.261l-8.42 8.42v8.307c0 .23-.09.451-.253.613l-1.74 1.74c.162.34.26.714.26 1.114 0 1.433-1.166 2.6-2.6 2.6a2.603 2.603 0 0 1-2.6-2.6c0-1.433 1.167-2.6 2.6-2.6ZM23.4 3.467a.868.868 0 0 0 0-1.734.868.868 0 0 0 0 1.734ZM9.533 26a.868.868 0 1 0-.001-1.735A.868.868 0 0 0 9.533 26ZM1.733 12.293V8.667c0-.231.091-.451.254-.613l6.067-6.067a.864.864 0 0 1 .613-.254h4.492A2.597 2.597 0 0 1 15.6 0c1.433 0 2.6 1.167 2.6 2.6s-1.167 2.6-2.6 2.6a2.597 2.597 0 0 1-2.44-1.733H9.024L3.467 9.025v3.268a2.596 2.596 0 0 1 1.733 2.44c0 1.433-1.167 2.6-2.6 2.6a2.603 2.603 0 0 1-2.6-2.6c0-1.128.727-2.082 1.733-2.44ZM15.6 3.467a.867.867 0 1 0-.002-1.735.867.867 0 0 0 .002 1.735ZM2.6 15.6a.867.867 0 1 0-.002-1.735A.867.867 0 0 0 2.6 15.6ZM13.866 46.96V34.507a2.597 2.597 0 0 1-1.733-2.44c0-1.434 1.167-2.6 2.6-2.6 1.129 0 2.082.726 2.44 1.733h8.986a2.597 2.597 0 0 1 2.441-1.734c1.128 0 2.082.727 2.44 1.733h5.001l3.22-3.22A2.557 2.557 0 0 1 39 26.867c0-1.433 1.166-2.6 2.6-2.6 1.433 0 2.6 1.167 2.6 2.6 0 1.434-1.167 2.6-2.6 2.6-.4 0-.775-.098-1.114-.26l-3.473 3.473a.864.864 0 0 1-.613.254h-5.36a2.597 2.597 0 0 1-2.44 1.733 2.597 2.597 0 0 1-2.44-1.733h-8.987a2.598 2.598 0 0 1-1.574 1.574V46.96a2.596 2.596 0 0 1 1.733 2.44c0 1.434-1.166 2.6-2.6 2.6a2.603 2.603 0 0 1-2.6-2.6c0-1.128.728-2.082 1.734-2.44ZM41.6 27.732a.867.867 0 1 0-.002-1.735.867.867 0 0 0 .002 1.735Zm-13 5.2a.868.868 0 1 0-.002-1.735.868.868 0 0 0 .002 1.735ZM14.733 50.266a.868.868 0 0 0 0-1.733.868.868 0 0 0 0 1.733Zm0-17.333a.868.868 0 0 0 0-1.733.868.868 0 0 0 0 1.733Z" fill="#00B2FF"/><path d="M18.2 17.492v-2.759c0-.23.091-.45.254-.613L28.86 3.714A2.556 2.556 0 0 1 28.6 2.6c0-1.433 1.166-2.6 2.6-2.6 1.128 0 2.082.727 2.44 1.733h3.627c.478 0 .866.388.866.867v2.241l3.22 3.22c.339-.163.713-.261 1.114-.261 1.433 0 2.6 1.166 2.6 2.6 0 1.433-1.167 2.6-2.6 2.6a2.603 2.603 0 0 1-2.6-2.6c0-.4.098-.775.26-1.114l-3.473-3.473A.863.863 0 0 1 36.4 5.2V3.467h-2.76A2.596 2.596 0 0 1 31.2 5.2c-.4 0-.775-.098-1.114-.261L19.933 15.092v2.4a2.596 2.596 0 0 1 1.734 2.441c0 1.433-1.167 2.6-2.6 2.6a2.603 2.603 0 0 1-2.6-2.6c0-1.128.727-2.082 1.733-2.44Zm24.267-6.226a.868.868 0 1 0-.002-1.735.868.868 0 0 0 .002 1.736ZM31.2 3.467a.868.868 0 0 0 0-1.733.868.868 0 0 0 0 1.734ZM19.067 20.8a.868.868 0 1 0-.002-1.735.868.868 0 0 0 .002 1.735Z" fill="#00B2FF"/><path d="M20.8 24.266c1.128 0 2.082.727 2.44 1.734h10.201l4.946-4.946A.864.864 0 0 1 39 20.8h9.175l2.092-2.092v-7.083L43.58 4.94c-.338.163-.713.26-1.113.26a2.603 2.603 0 0 1-2.6-2.599c0-1.433 1.166-2.6 2.6-2.6 1.433 0 2.6 1.167 2.6 2.6 0 .4-.098.775-.261 1.114l6.94 6.94a.863.863 0 0 1 .254.613v7.8c0 .23-.091.45-.254.612l-2.6 2.6a.864.864 0 0 1-.613.254H39.36l-4.946 4.946a.864.864 0 0 1-.613.254H23.24a2.596 2.596 0 0 1-2.44 1.733 2.603 2.603 0 0 1-2.6-2.6c0-1.433 1.166-2.6 2.6-2.6ZM42.467 1.733a.868.868 0 1 0 .001 1.735.868.868 0 0 0-.001-1.735Zm-21.667 26a.868.868 0 0 0 0-1.733.868.868 0 0 0 0 1.733ZM2.6 20.8c.4 0 .775.098 1.114.26l3.22-3.219v-5A2.596 2.596 0 0 1 5.2 10.4c0-1.434 1.167-2.6 2.6-2.6s2.6 1.166 2.6 2.6a2.596 2.596 0 0 1-1.733 2.44v5.36c0 .23-.091.45-.254.613l-3.474 3.473c.163.339.261.713.261 1.114a2.597 2.597 0 0 1-1.733 2.44v.668l6.679 6.679a.863.863 0 0 1 .254.613v1.026a2.596 2.596 0 0 1 1.733 2.44 2.596 2.596 0 0 1-1.733 2.44v2.054a2.596 2.596 0 0 1 1.733 2.44c0 1.434-1.166 2.6-2.6 2.6a2.603 2.603 0 0 1-2.6-2.6c0-1.128.727-2.082 1.734-2.44v-2.053a2.596 2.596 0 0 1-1.734-2.44c0-1.13.727-2.083 1.734-2.441v-.668l-6.68-6.679a.863.863 0 0 1-.254-.613V25.84A2.597 2.597 0 0 1 0 23.4c0-1.434 1.167-2.6 2.6-2.6Zm5.2-9.534a.867.867 0 1 0-.002-1.734.867.867 0 0 0 .002 1.735Zm1.733 33.8a.868.868 0 0 0 0-1.733.867.867 0 0 0 0 1.733Zm0-6.933a.868.868 0 0 0 0-1.733.867.867 0 0 0 0 1.733ZM2.6 24.266a.867.867 0 1 0-.002-1.735.867.867 0 0 0 .002 1.735Z" fill="#00B2FF"/></g></symbol><symbol id="minus"><g fill="none"><path d="M0 .5h16v1H0v-1Z" fill="#C4C4C4"/></g></symbol><symbol id="plus"><g fill="none"><path fill-rule="evenodd" clip-rule="evenodd" d="M8.5 7.5V0h-1v7.5H0v1h7.5V16h1V8.5H16v-1H8.5Z" fill="#C4C4C4"/></g></symbol><symbol id="price-tag"><g fill="none"><path d="M11.07 8.585a.689.689 0 0 0-.483-.2.689.689 0 0 0-.483.2.69.69 0 0 0-.2.483c0 .18.073.356.2.483.127.128.304.2.483.2.18 0 .357-.072.484-.2a.69.69 0 0 0 .2-.483.689.689 0 0 0-.2-.483Z" fill="#00B2FF"/><path d="m34.8 2.859-.845-.847.845-.845A.684.684 0 0 0 33.833.2l-.844.845-.833-.834a.683.683 0 0 0-.484-.2L20.102.003H20.1c-.913 0-1.772.356-2.418 1.002L11.908 6.78a.684.684 0 0 0 .967.967l5.774-5.774A2.04 2.04 0 0 1 20.1 1.37h.002l11.286.007.634.634-2.537 2.537a2.805 2.805 0 0 0-3.419.422 2.783 2.783 0 0 0-.82 1.98c0 .748.291 1.452.82 1.98a2.792 2.792 0 0 0 1.98.82c.717 0 1.434-.273 1.98-.82a2.806 2.806 0 0 0 .425-3.415l2.537-2.537.645.646-.007 11.273a2.04 2.04 0 0 1-.601 1.451L16.344 33.033a2.04 2.04 0 0 1-1.452.601 2.04 2.04 0 0 1-1.452-.601L1.97 21.559a2.04 2.04 0 0 1-.602-1.452c0-.548.214-1.064.602-1.452l7.368-7.37a.684.684 0 0 0-.966-.966L1 17.689A3.399 3.399 0 0 0 0 20.106c0 .914.356 1.773 1.002 2.42L12.473 34a3.41 3.41 0 0 0 2.419 1 3.41 3.41 0 0 0 2.419-1l16.68-16.684a3.4 3.4 0 0 0 1.003-2.417L35 3.342a.683.683 0 0 0-.2-.483Zm-5.74 5.106c-.271.27-.631.42-1.014.42s-.742-.15-1.013-.42a1.435 1.435 0 0 1 1.013-2.447c.139 0 .277.02.41.06l-.789.789a.684.684 0 0 0 .967.967l.787-.787a1.434 1.434 0 0 1-.361 1.418Z" fill="#00B2FF"/><path d="m29.2 13.764-7.966-7.967a2.71 2.71 0 0 0-3.828 0L4.8 18.406a2.69 2.69 0 0 0-.793 1.914c0 .723.282 1.403.793 1.914l7.967 7.968c.511.51 1.19.793 1.914.793.723 0 1.402-.282 1.913-.793L29.2 17.592a2.69 2.69 0 0 0 .793-1.913 2.69 2.69 0 0 0-.793-1.915Zm-.966 2.862L15.627 29.235a1.33 1.33 0 0 1-.947.392 1.33 1.33 0 0 1-.947-.392l-7.967-7.968a1.33 1.33 0 0 1-.392-.947c0-.358.139-.695.392-.948L18.373 6.764c.261-.262.604-.392.947-.392.343 0 .686.13.947.392l7.967 7.967c.253.253.392.59.392.948 0 .357-.14.694-.392.947Z" fill="#00B2FF"/><path d="M22.29 13.677a.684.684 0 0 0-.966-.967l-.394.394c-1.051-.65-2.4-.563-3.252.29a2.48 2.48 0 0 0-.716 1.9 2.876 2.876 0 0 0 .853 1.892c.55.55.611 1.384.137 1.859-.475.474-1.309.413-1.859-.137s-.61-1.384-.136-1.859a.684.684 0 0 0-.967-.967c-.853.853-.94 2.202-.29 3.253l-.468.467a.684.684 0 0 0 .968.967l.467-.467c.46.283.975.427 1.482.427.652 0 1.29-.238 1.77-.717 1.007-1.008.946-2.709-.137-3.792a1.512 1.512 0 0 1-.454-.991 1.13 1.13 0 0 1 .317-.868c.474-.475 1.308-.413 1.858.137s.611 1.384.137 1.858a.684.684 0 0 0 .966.967c.853-.852.94-2.201.29-3.252l.394-.394ZM15.372 25.012 11.86 21.5a.684.684 0 0 0-.967.967l3.511 3.512a.682.682 0 0 0 .967 0 .684.684 0 0 0 0-.967ZM9.988 19.627a.688.688 0 0 0-.483-.2.69.69 0 0 0-.483.2.69.69 0 0 0-.2.484c0 .18.072.356.2.483.127.127.303.2.483.2a.688.688 0 0 0 .684-.683.689.689 0 0 0-.2-.484Z" fill="#00B2FF"/></g></symbol><symbol id="stopwatch"><g fill="none"><path d="m3.22 11.995-1.501-1.513a2.124 2.124 0 0 1 0-2.983 2.081 2.081 0 0 1 2.958 0l1.602 1.616a14.58 14.58 0 0 1 5.574-2.377V4.64h-1.394a.7.7 0 0 1-.698-.704V2.11C9.761.946 10.7 0 11.853 0h5.578c1.153 0 2.091.946 2.091 2.11v1.828a.7.7 0 0 1-.697.703h-1.394v2.097a14.577 14.577 0 0 1 5.574 2.377l1.602-1.616a2.081 2.081 0 0 1 2.958 0c.816.822.816 2.16 0 2.983l-1.5 1.513a14.829 14.829 0 0 1 3.219 9.24C29.284 29.375 22.715 36 14.642 36S0 29.376 0 21.234c0-3.37 1.14-6.625 3.22-9.239Zm.47-3.502a.694.694 0 0 0-.985 0 .709.709 0 0 0 0 .994l1.44 1.453a14.87 14.87 0 0 1 1.02-.96L3.69 8.493Zm14.438-6.384a.7.7 0 0 0-.697-.703h-5.578a.7.7 0 0 0-.697.703v1.125h6.972V2.11Zm-4.88 2.532v1.894a14.875 14.875 0 0 1 2.788 0V4.641h-2.789Zm13.331 3.852a.694.694 0 0 0-.986 0L24.12 9.98c.354.303.695.624 1.02.96l1.44-1.453a.708.708 0 0 0 0-.994Zm-11.937 26.1c7.305 0 13.247-5.992 13.247-13.359 0-3.25-1.17-6.38-3.293-8.816a13.412 13.412 0 0 0-1.94-1.823 13.178 13.178 0 0 0-6.026-2.571 13.356 13.356 0 0 0-3.976 0 13.18 13.18 0 0 0-6.026 2.571 13.42 13.42 0 0 0-1.94 1.823 13.409 13.409 0 0 0-3.293 8.816c0 7.367 5.942 13.36 13.247 13.36Z" fill="#00B2FF"/><path d="M14.642 23.344a2.103 2.103 0 0 1-2.092-2.11c0-.916.583-1.698 1.394-1.988v-5.043a.7.7 0 0 1 .698-.703.7.7 0 0 1 .697.703v5.043a2.112 2.112 0 0 1 1.394 1.988c0 1.164-.938 2.11-2.091 2.11Zm0-2.813a.7.7 0 0 0-.697.703.7.7 0 0 0 .697.703.7.7 0 0 0 .697-.703.7.7 0 0 0-.697-.703Z" fill="#00B2FF"/><path d="m7.214 13.816.034-.038a10.479 10.479 0 0 1 4.435-2.662.704.704 0 0 1 .395 1.349 9.065 9.065 0 0 0-3.33 1.832l.47.474a.708.708 0 0 1 0 .994.692.692 0 0 1-.985 0l-.472-.475a9.095 9.095 0 0 0-2.157 5.241h.671a.7.7 0 0 1 .697.703.7.7 0 0 1-.697.703h-.67a9.094 9.094 0 0 0 2.156 5.241l.472-.475a.694.694 0 0 1 .986 0 .707.707 0 0 1 0 .995l-.472.475a8.94 8.94 0 0 0 5.197 2.175v-.676a.7.7 0 0 1 .698-.703.7.7 0 0 1 .697.703v.676a8.94 8.94 0 0 0 5.197-2.175l-.472-.475a.707.707 0 0 1 0-.995.694.694 0 0 1 .987 0l.471.475a9.096 9.096 0 0 0 2.157-5.24h-.67a.7.7 0 0 1-.698-.704.7.7 0 0 1 .697-.703h.671a9.096 9.096 0 0 0-2.157-5.24l-.471.474a.691.691 0 0 1-.986 0 .708.708 0 0 1 0-.994l.47-.474a9.06 9.06 0 0 0-3.33-1.832.704.704 0 0 1-.471-.873.696.696 0 0 1 .866-.475 10.475 10.475 0 0 1 4.393 2.623.693.693 0 0 1 .042.038l.034.037a10.52 10.52 0 0 1 3.031 7.42 10.52 10.52 0 0 1-3.03 7.417l-.035.038-.037.034a10.343 10.343 0 0 1-7.356 3.057 10.341 10.341 0 0 1-7.356-3.056l-.038-.035-.033-.037a10.52 10.52 0 0 1-3.032-7.419 10.52 10.52 0 0 1 3.031-7.418Z" fill="#00B2FF"/><path d="M14.642 12.094a.7.7 0 0 1-.698-.703.7.7 0 0 1 .698-.704.7.7 0 0 1 .697.704.7.7 0 0 1-.697.703Z" fill="#00B2FF"/></g></symbol><symbol id="triangle"><g fill="none"><path opacity=".2" d="M323.148.75 162.5 279 1.852.75h321.296Z" stroke="#fff"/></g></symbol><symbol id="vk"><g fill="none"><path d="M19.475 15.127c-1.109-1.024-1.188-1.024-.238-2.206 1.188-1.497 2.773-3.388 1.347-3.388H17.97c-.475 0-.554.316-.713.71-.633 1.496-1.9 3.466-2.376 3.15-.475-.314-.237-1.496-.237-3.387a.61.61 0 0 0-.159-.63c-.158-.158-.396-.315-.633-.315-.396-.079-.792-.158-1.188-.158-1.505 0-2.535.63-1.98.71 1.03.157.95 2.363.712 3.308-.396 1.655-1.98-1.26-2.693-2.757-.079-.394-.396-.63-.792-.63H5.852c-.317 0-.554.078-.554.315 0 .393 1.98 4.254 3.801 6.223 1.822 1.891 3.644 1.734 4.911 1.734a.607.607 0 0 0 .396-.158.6.6 0 0 0 .158-.394c0-1.26.476-1.89 1.347-1.024.95.945 1.188 1.576 2.376 1.576h2.138c.555 0 .713-.158.713-.394.08-.552-.871-1.576-1.663-2.285ZM13.852.001c7.366.157 13.226 6.066 13.147 13.235-.079 7.17-6.178 12.842-13.543 12.763C6.01 25.92.07 20.17.07 13 .15 5.753 6.327-.077 13.852.002Z" fill="#CDCDCD"/></g></symbol></svg>