<?xml version="1.0" encoding="UTF-8"?><!DOCTYPE svg PUBLIC "-//W3C//DTD SVG 1.1//EN" "http://www.w3.org/Graphics/SVG/1.1/DTD/svg11.dtd"><svg xmlns="http://www.w3.org/2000/svg" xmlns:xlink="http://www.w3.org/1999/xlink"><symbol id="arrow"><g fill="none"><path d="m1 8.5 4-4-4-4" stroke="#fff" stroke-linejoin="round"/></g></symbol><symbol id="classmates"><g fill="none"><path d="M13.851 10.957c1.016 0 1.806-.836 1.787-1.746.019-.91-.752-1.764-1.768-1.764-.978 0-1.787.78-1.787 1.746 0 .965.79 1.764 1.768 1.764Z" fill="#CDCDCD"/><path d="M13.701 0C6.441 0 .535 5.831.535 13c0 7.187 5.906 13 13.166 13 7.279 0 13.166-5.831 13.166-13C26.885 5.83 20.98 0 13.7 0Zm.188 4.921c2.37 0 4.326 1.932 4.307 4.29 0 2.377-1.975 4.29-4.382 4.253-2.37-.037-4.27-1.95-4.27-4.271 0-2.359 1.938-4.272 4.345-4.272Zm4.834 10.029c0 .037-.019.056-.019.093a1.213 1.213 0 0 1-.564.873c-.207.13-.433.26-.659.371a8.55 8.55 0 0 1-1.786.65c-.075.019-.075.019-.02.074l1.035 1.022 1.317 1.3c.62.613.451 1.634-.339 2.006-.131.074-.282.092-.432.13h-.245c-.019 0-.037 0-.037-.02-.301-.036-.546-.185-.771-.39l-2.276-2.246c-.057-.056-.057-.056-.113 0l-2.295 2.265c-.131.13-.263.223-.432.298-.113.055-.245.074-.358.092h-.244c-.038 0-.057-.018-.094-.018-.508-.093-.847-.372-.997-.854-.15-.483-.038-.91.32-1.263l.94-.929 1.392-1.374c.056-.056.056-.056-.019-.074-.019 0-.056-.019-.075-.019a8.182 8.182 0 0 1-2.351-.984c-.433-.279-.64-.687-.583-1.189.094-.928 1.147-1.43 1.937-.928.15.092.282.167.451.241a5.413 5.413 0 0 0 2.746.557c.47-.018.94-.111 1.411-.26.451-.148.846-.353 1.26-.575.677-.39 1.561-.075 1.825.65.037.11.056.204.075.315v.186Z" fill="#CDCDCD"/></g></symbol><symbol id="detective"><g fill="none"><path d="M15.102 8.184a.592.592 0 0 0-.59.594c0 .328.264.594.59.594.326 0 .59-.266.59-.594a.592.592 0 0 0-.59-.594Z" fill="#00B2FF"/><path d="M28.435 11.747h-2.296C24.93 8.27 23.174 2.17 19.993.444c-1.59-.862-3.095-.26-3.66.964-.24.52-.721.793-1.23.793-.517 0-.994-.28-1.232-.793C13.326.226 11.858-.43 10.323.32c-3.231 1.58-5.038 7.924-6.258 11.428H1.77c-.978 0-1.77.797-1.77 1.782 0 .982.794 1.782 1.77 1.782h26.665c.978 0 1.77-.798 1.77-1.782 0-.982-.794-1.782-1.77-1.782ZM6.138 9.372h6.604c.326 0 .59-.266.59-.594a.592.592 0 0 0-.59-.594H6.55C8.328 3.24 9.99 1.802 10.84 1.387c.926-.452 1.688-.073 1.963.522a2.514 2.514 0 0 0 2.3 1.48c.975 0 1.87-.546 2.3-1.48.284-.612 1.05-.951 2.031-.42.853.464 2.51 1.948 4.221 6.695h-6.192a.592.592 0 0 0-.59.594c0 .328.264.594.59.594h6.605c.298.866.608 1.76.822 2.375H5.315c.214-.614.523-1.506.823-2.375Zm22.297 4.75H1.77a.593.593 0 0 1-.59-.593c0-.328.264-.594.59-.594h26.665c.325 0 .59.266.59.594a.592.592 0 0 1-.59.594ZM13.922 17.686H4.483a.592.592 0 0 0-.59.594v2.375c0 2.947 2.382 5.345 5.31 5.345a5.299 5.299 0 0 0 4.963-3.443 2.25 2.25 0 0 1 1.873 0A5.299 5.299 0 0 0 21.002 26c2.927 0 5.309-2.398 5.309-5.345V18.28a.592.592 0 0 0-.59-.594h-9.439a.592.592 0 0 0-.59.594v.593h-1.18v-.593a.592.592 0 0 0-.59-.594Zm-4.72 7.126c-2.276 0-4.129-1.865-4.129-4.157v-1.781h8.26v1.781c0 2.298-1.843 4.157-4.13 4.157Zm7.67-5.938h8.26v1.781c0 2.292-1.853 4.157-4.13 4.157-2.293 0-4.13-1.864-4.13-4.157v-1.781Zm-1.18 1.187v.594c0 .19.011.38.03.567a3.43 3.43 0 0 0-1.24 0c.02-.188.03-.377.03-.567v-.594h1.18Z" fill="#00B2FF"/><path d="M9.202 22.437c-.976 0-1.77-.8-1.77-1.782a.592.592 0 0 0-.59-.594.592.592 0 0 0-.59.594c0 1.637 1.324 2.97 2.95 2.97.326 0 .59-.267.59-.594a.592.592 0 0 0-.59-.594ZM21.002 23.625c1.627 0 2.95-1.333 2.95-2.97a.592.592 0 0 0-.59-.594.592.592 0 0 0-.59.594c0 .982-.794 1.782-1.77 1.782a.592.592 0 0 0-.59.594c0 .327.264.594.59.594Z" fill="#00B2FF"/></g></symbol><symbol id="facebook"><g fill="none"><path fill-rule="evenodd" clip-rule="evenodd" d="M27 13.5C27 6.045 20.956 0 13.5 0S0 6.045 0 13.5C0 20.956 6.044 27 13.5 27S27 20.956 27 13.5ZM16.884 9.294h-1.74c-.469 0-.798.397-.798.891v.775h2.485l-.402 2.517h-2.083v6.747h-2.543v-6.747h-1.688V10.96h1.688V9.677h.004c.045-1.463.553-2.856 3.031-2.944v-.01h2.046v2.571Z" fill="#CDCDCD"/></g></symbol><symbol id="hired"><g fill="none"><path d="M28.236 25.502c.339-.474.54-1.055.54-1.684v-3.756a.621.621 0 0 0-.618-.625h-2.76c-1.275 0-2.313 1.051-2.313 2.342v2.04c0 .627.2 1.208.54 1.682a3.94 3.94 0 0 0-1.208.407 5.243 5.243 0 0 0-3.878-2.34l-.019-.005a3.7 3.7 0 0 0 .93-2.459V16a.621.621 0 0 0-.617-.625h-3.75c-1.612 0-2.923 1.327-2.923 2.958v2.771a3.7 3.7 0 0 0 .93 2.459l-.019.005a5.243 5.243 0 0 0-3.878 2.34 3.946 3.946 0 0 0-1.207-.407 2.888 2.888 0 0 0 .539-1.683v-3.756a.621.621 0 0 0-.617-.625h-2.76c-1.275 0-2.313 1.051-2.313 2.342v2.04c0 .628.2 1.21.54 1.683C1.462 25.818 0 27.501 0 29.523v1.852c0 .345.276.625.617.625h30.376c.341 0 .617-.28.617-.625v-1.852c0-2.022-1.463-3.705-3.374-4.02ZM4.07 21.78c0-.602.484-1.091 1.078-1.091H7.29v.76c0 .374-.3.678-.668.678H4.07v-.347Zm0 1.596h2.552c.235 0 .46-.043.668-.123v.566c0 .899-.722 1.63-1.61 1.63-.888 0-1.61-.731-1.61-1.63v-.443Zm2.008 3.323-.398.403-.398-.403h.796Zm2.23 2.16v1.892H1.234v-1.227a2.82 2.82 0 0 1 2.338-2.787l1.67 1.69a.614.614 0 0 0 .874 0l1.67-1.69c.296.048.58.144.844.285a5.347 5.347 0 0 0-.324 1.837Zm7.497-5.314c-1.329 0-2.41-1.094-2.41-2.44v-.826h3.69c.41 0 .794-.105 1.13-.291v1.117c0 1.346-1.08 2.44-2.41 2.44Zm1.076 1.25-1.076 1.09-1.076-1.09h2.152Zm-3.486-6.46a1.7 1.7 0 0 1 1.688-1.709h3.132v1.259c0 .631-.507 1.144-1.13 1.144h-3.69v-.695ZM22.07 30.75H9.541V29.5h4.02c.341 0 .618-.28.618-.625a.621.621 0 0 0-.618-.625H9.587c.265-1.776 1.67-3.178 3.433-3.418l2.349 2.377a.612.612 0 0 0 .873 0l2.349-2.377c1.96.266 3.477 1.97 3.477 4.026v1.892Zm2.251-8.97c0-.603.484-1.093 1.079-1.093h2.142v.762c0 .373-.3.677-.669.677H24.32v-.347Zm0 1.595h2.552c.235 0 .46-.043.669-.123v.566c0 .899-.723 1.63-1.61 1.63-.888 0-1.61-.731-1.61-1.63v-.443Zm2.008 3.323-.398.403-.398-.403h.796Zm-3.025 4.052v-1.892c0-.645-.114-1.264-.323-1.837.264-.141.548-.237.843-.286l1.67 1.692a.614.614 0 0 0 .874 0l1.67-1.691a2.82 2.82 0 0 1 2.339 2.787v1.227h-7.073ZM18.848 4.084a.612.612 0 0 0-.873 0l-3.03 3.067-1.309-1.326a.612.612 0 0 0-.873 0 .63.63 0 0 0 0 .884l1.746 1.767a.614.614 0 0 0 .873 0l3.466-3.509a.63.63 0 0 0 0-.883Z" fill="#00B2FF"/><path d="M18.33.542a.615.615 0 0 0-.814.316.628.628 0 0 0 .312.826 5.042 5.042 0 0 1 2.947 4.596c0 2.773-2.229 5.03-4.968 5.03-2.74 0-4.97-2.257-4.97-5.03a5.046 5.046 0 0 1 2.927-4.587.628.628 0 0 0 .308-.827.614.614 0 0 0-.816-.312c-2.22 1.014-3.653 3.262-3.653 5.726 0 3.463 2.783 6.28 6.204 6.28 3.42 0 6.203-2.817 6.203-6.28 0-2.477-1.444-4.73-3.68-5.738Z" fill="#00B2FF"/><path d="M15.828 0h-.023c-.34 0-.617.28-.617.625s.276.625.617.625h.02c.34 0 .615-.278.617-.622A.621.621 0 0 0 15.828 0ZM16.242 28.433a.618.618 0 0 0-.437-.183.618.618 0 0 0-.617.625.619.619 0 0 0 .617.625.618.618 0 0 0 .618-.625.634.634 0 0 0-.181-.442Z" fill="#00B2FF"/></g></symbol><symbol id="minus"><g fill="none"><path d="M0 .5h16v1H0v-1Z" fill="#C4C4C4"/></g></symbol><symbol id="plus"><g fill="none"><path fill-rule="evenodd" clip-rule="evenodd" d="M8.5 7.5V0h-1v7.5H0v1h7.5V16h1V8.5H16v-1H8.5Z" fill="#C4C4C4"/></g></symbol><symbol id="price-tag"><g fill="none"><path d="M8.11 1.505a.623.623 0 0 0 0-.884.631.631 0 0 0-.89 0l-.36.36c-.967-.594-2.207-.514-2.991.265a2.26 2.26 0 0 0-.658 1.738c.031.643.31 1.257.784 1.73.505.502.562 1.264.126 1.698-.437.434-1.203.378-1.709-.125-.505-.503-.562-1.265-.126-1.7a.623.623 0 0 0 0-.883.631.631 0 0 0-.889 0c-.783.78-.863 2.012-.266 2.974l-.43.427a.623.623 0 0 0 .445 1.067c.16 0 .322-.061.444-.183l.43-.427c.422.259.896.39 1.362.39.6 0 1.186-.217 1.628-.656.926-.92.87-2.476-.126-3.466a1.378 1.378 0 0 1-.418-.907 1.03 1.03 0 0 1 .292-.793c.436-.434 1.202-.378 1.708.125s.562 1.265.126 1.7a.623.623 0 0 0 .445 1.066c.16 0 .321-.06.444-.183.784-.78.864-2.012.267-2.973l.362-.36Z" fill="#00B2FF"/></g></symbol><symbol id="stopwatch"><g fill="none"><path d="m3.22 11.995-1.501-1.513a2.124 2.124 0 0 1 0-2.983 2.081 2.081 0 0 1 2.958 0l1.602 1.616a14.58 14.58 0 0 1 5.574-2.377V4.64h-1.394a.7.7 0 0 1-.698-.704V2.11C9.761.946 10.7 0 11.853 0h5.578c1.153 0 2.091.946 2.091 2.11v1.828a.7.7 0 0 1-.697.703h-1.394v2.097a14.577 14.577 0 0 1 5.574 2.377l1.602-1.616a2.081 2.081 0 0 1 2.958 0c.816.822.816 2.16 0 2.983l-1.5 1.513a14.829 14.829 0 0 1 3.219 9.24C29.284 29.375 22.715 36 14.642 36S0 29.376 0 21.234c0-3.37 1.14-6.625 3.22-9.239Zm.47-3.502a.694.694 0 0 0-.985 0 .709.709 0 0 0 0 .994l1.44 1.453a14.87 14.87 0 0 1 1.02-.96L3.69 8.493Zm14.438-6.384a.7.7 0 0 0-.697-.703h-5.578a.7.7 0 0 0-.697.703v1.125h6.972V2.11Zm-4.88 2.532v1.894a14.875 14.875 0 0 1 2.788 0V4.641h-2.789Zm13.331 3.852a.694.694 0 0 0-.986 0L24.12 9.98c.354.303.695.624 1.02.96l1.44-1.453a.708.708 0 0 0 0-.994Zm-11.937 26.1c7.305 0 13.247-5.992 13.247-13.359 0-3.25-1.17-6.38-3.293-8.816a13.412 13.412 0 0 0-1.94-1.823 13.178 13.178 0 0 0-6.026-2.571 13.356 13.356 0 0 0-3.976 0 13.18 13.18 0 0 0-6.026 2.571 13.42 13.42 0 0 0-1.94 1.823 13.409 13.409 0 0 0-3.293 8.816c0 7.367 5.942 13.36 13.247 13.36Z" fill="#00B2FF"/><path d="M14.642 23.344a2.103 2.103 0 0 1-2.092-2.11c0-.916.583-1.698 1.394-1.988v-5.043a.7.7 0 0 1 .698-.703.7.7 0 0 1 .697.703v5.043a2.112 2.112 0 0 1 1.394 1.988c0 1.164-.938 2.11-2.091 2.11Zm0-2.813a.7.7 0 0 0-.697.703.7.7 0 0 0 .697.703.7.7 0 0 0 .697-.703.7.7 0 0 0-.697-.703Z" fill="#00B2FF"/><path d="m7.214 13.816.034-.038a10.479 10.479 0 0 1 4.435-2.662.704.704 0 0 1 .395 1.349 9.065 9.065 0 0 0-3.33 1.832l.47.474a.708.708 0 0 1 0 .994.692.692 0 0 1-.985 0l-.472-.475a9.095 9.095 0 0 0-2.157 5.241h.671a.7.7 0 0 1 .697.703.7.7 0 0 1-.697.703h-.67a9.094 9.094 0 0 0 2.156 5.241l.472-.475a.694.694 0 0 1 .986 0 .707.707 0 0 1 0 .995l-.472.475a8.94 8.94 0 0 0 5.197 2.175v-.676a.7.7 0 0 1 .698-.703.7.7 0 0 1 .697.703v.676a8.94 8.94 0 0 0 5.197-2.175l-.472-.475a.707.707 0 0 1 0-.995.694.694 0 0 1 .987 0l.471.475a9.096 9.096 0 0 0 2.157-5.24h-.67a.7.7 0 0 1-.698-.704.7.7 0 0 1 .697-.703h.671a9.096 9.096 0 0 0-2.157-5.24l-.471.474a.691.691 0 0 1-.986 0 .708.708 0 0 1 0-.994l.47-.474a9.06 9.06 0 0 0-3.33-1.832.704.704 0 0 1-.471-.873.696.696 0 0 1 .866-.475 10.475 10.475 0 0 1 4.393 2.623.693.693 0 0 1 .042.038l.034.037a10.52 10.52 0 0 1 3.031 7.42 10.52 10.52 0 0 1-3.03 7.417l-.035.038-.037.034a10.343 10.343 0 0 1-7.356 3.057 10.341 10.341 0 0 1-7.356-3.056l-.038-.035-.033-.037a10.52 10.52 0 0 1-3.032-7.419 10.52 10.52 0 0 1 3.031-7.418Z" fill="#00B2FF"/><path d="M14.642 12.094a.7.7 0 0 1-.698-.703.7.7 0 0 1 .698-.704.7.7 0 0 1 .697.704.7.7 0 0 1-.697.703Z" fill="#00B2FF"/></g></symbol><symbol id="vk"><g fill="none"><path d="M19.475 15.127c-1.109-1.024-1.188-1.024-.238-2.206 1.188-1.497 2.773-3.388 1.347-3.388H17.97c-.475 0-.554.316-.713.71-.633 1.496-1.9 3.466-2.376 3.15-.475-.314-.237-1.496-.237-3.387a.61.61 0 0 0-.159-.63c-.158-.158-.396-.315-.633-.315-.396-.079-.792-.158-1.188-.158-1.505 0-2.535.63-1.98.71 1.03.157.95 2.363.712 3.308-.396 1.655-1.98-1.26-2.693-2.757-.079-.394-.396-.63-.792-.63H5.852c-.317 0-.554.078-.554.315 0 .393 1.98 4.254 3.801 6.223 1.822 1.891 3.644 1.734 4.911 1.734a.607.607 0 0 0 .396-.158.6.6 0 0 0 .158-.394c0-1.26.476-1.89 1.347-1.024.95.945 1.188 1.576 2.376 1.576h2.138c.555 0 .713-.158.713-.394.08-.552-.871-1.576-1.663-2.285ZM13.852.001c7.366.157 13.226 6.066 13.147 13.235-.079 7.17-6.178 12.842-13.543 12.763C6.01 25.92.07 20.17.07 13 .15 5.753 6.327-.077 13.852.002Z" fill="#CDCDCD"/></g></symbol></svg>