<svg width="32" height="32" viewBox="0 0 32 32" fill="none" xmlns="http://www.w3.org/2000/svg">
<path d="M19.734 8.5332C20.4284 8.5332 21.015 8.98066 21.2358 9.59985H26.7654C26.9862 8.98066 27.5728 8.5332 28.2672 8.5332C29.1493 8.5332 29.8672 9.25106 29.8672 10.1332C29.8672 11.0153 29.1493 11.7331 28.2672 11.7331C27.5728 11.7331 26.9862 11.2857 26.7654 10.6665H21.2353C21.0145 11.2857 20.4278 11.7331 19.7334 11.7331C18.8513 11.7331 18.1334 11.0153 18.1334 10.1332C18.1334 9.25106 18.8518 8.5332 19.734 8.5332ZM28.2672 10.6665C28.5611 10.6665 28.8005 10.4276 28.8005 10.1332C28.8005 9.83878 28.5611 9.59985 28.2672 9.59985C27.9733 9.59985 27.7339 9.83878 27.7339 10.1332C27.7339 10.4276 27.9733 10.6665 28.2672 10.6665ZM19.734 10.6665C20.0278 10.6665 20.2673 10.4276 20.2673 10.1332C20.2673 9.83878 20.0278 9.59985 19.734 9.59985C19.4401 9.59985 19.2006 9.83878 19.2006 10.1332C19.2006 10.4276 19.4401 10.6665 19.734 10.6665Z" fill="#00B2FF"/>
<path d="M15.4665 11.8314V8.53332C15.4665 8.39145 15.5225 8.25599 15.6228 8.15626L17.7561 6.02296C17.8558 5.9227 17.9918 5.8667 18.1332 5.8667H19.8313C20.0521 5.24751 20.6387 4.80005 21.3331 4.80005C22.2152 4.80005 22.9331 5.5179 22.9331 6.40002C22.9331 7.28214 22.2152 7.99999 21.3331 7.99999C20.6387 7.99999 20.0521 7.55253 19.8313 6.93334H18.354L16.5332 8.75411V11.8314C17.1524 12.0522 17.5998 12.6388 17.5998 13.3332C17.5998 14.2153 16.882 14.9332 15.9998 14.9332C15.1177 14.9332 14.3999 14.2153 14.3999 13.3332C14.3999 12.6388 14.8473 12.0522 15.4665 11.8314ZM21.3331 6.93334C21.627 6.93334 21.8664 6.69441 21.8664 6.40002C21.8664 6.10563 21.627 5.8667 21.3331 5.8667C21.0393 5.8667 20.7998 6.10563 20.7998 6.40002C20.7998 6.69441 21.0393 6.93334 21.3331 6.93334ZM15.9998 13.8666C16.2937 13.8666 16.5332 13.6276 16.5332 13.3332C16.5332 13.0388 16.2937 12.7999 15.9998 12.7999C15.706 12.7999 15.4665 13.0388 15.4665 13.3332C15.4665 13.6276 15.706 13.8666 15.9998 13.8666Z" fill="#00B2FF"/>
<path d="M5.86677 13.8664C6.11317 13.8664 6.34357 13.9267 6.5521 14.0269L7.46675 13.1123V7.99986C7.46675 7.85799 7.52275 7.72253 7.62302 7.6228L12.9606 2.28529C12.8603 2.07676 12.8 1.84637 12.8 1.59997C12.8 0.717854 13.5179 0 14.4 0C15.2821 0 16 0.717854 16 1.59997C16 2.48209 15.2821 3.19994 14.4 3.19994C14.1536 3.19994 13.9232 3.13968 13.7147 3.03941L8.53341 8.22065V13.3331C8.53341 13.475 8.47741 13.6104 8.37715 13.7102L7.30622 14.7811C7.40649 14.9896 7.46675 15.22 7.46675 15.4664C7.46675 16.3485 6.7489 17.0664 5.86677 17.0664C4.98465 17.0664 4.26679 16.3485 4.26679 15.4664C4.26679 14.5843 4.98465 13.8664 5.86677 13.8664ZM14.4 2.1333C14.6939 2.1333 14.9333 1.89437 14.9333 1.59997C14.9333 1.30558 14.6939 1.06665 14.4 1.06665C14.1062 1.06665 13.8667 1.30558 13.8667 1.59997C13.8667 1.89437 14.1062 2.1333 14.4 2.1333ZM5.86677 15.9997C6.16064 15.9997 6.4001 15.7608 6.4001 15.4664C6.4001 15.172 6.16064 14.9331 5.86677 14.9331C5.57291 14.9331 5.33344 15.172 5.33344 15.4664C5.33344 15.7608 5.57291 15.9997 5.86677 15.9997Z" fill="#00B2FF"/>
<path d="M1.06648 7.56466V5.33324C1.06648 5.19137 1.12248 5.05591 1.22274 4.95618L4.95604 1.22291C5.05577 1.12265 5.19177 1.06665 5.3331 1.06665H8.09787C8.31867 0.447459 8.90533 0 9.59972 0C10.4818 0 11.1997 0.717854 11.1997 1.59997C11.1997 2.48209 10.4818 3.19994 9.59972 3.19994C8.90533 3.19994 8.31867 2.75248 8.09787 2.13329H5.5539L2.13313 5.55403V7.56466C2.75233 7.78546 3.19979 8.37212 3.19979 9.0665C3.19979 9.94862 2.48193 10.6665 1.59981 10.6665C0.717682 10.6665 -0.000177145 9.94862 -0.000177145 9.0665C-0.000177145 8.37212 0.447285 7.78546 1.06648 7.56466ZM9.59972 2.13329C9.89359 2.13329 10.1331 1.89437 10.1331 1.59997C10.1331 1.30558 9.89359 1.06665 9.59972 1.06665C9.30586 1.06665 9.0664 1.30558 9.0664 1.59997C9.0664 1.89437 9.30586 2.13329 9.59972 2.13329ZM1.59981 9.59983C1.89367 9.59983 2.13313 9.3609 2.13313 9.0665C2.13313 8.77211 1.89367 8.53318 1.59981 8.53318C1.30594 8.53318 1.06648 8.77211 1.06648 9.0665C1.06648 9.3609 1.30594 9.59983 1.59981 9.59983Z" fill="#00B2FF"/>
<path d="M8.5327 28.8982V21.2349C7.91404 21.0141 7.46658 20.4274 7.46658 19.733C7.46658 18.8509 8.18444 18.133 9.06656 18.133C9.76095 18.133 10.3476 18.5805 10.5684 19.1997H16.098C16.3188 18.5805 16.9054 18.133 17.5998 18.133C18.2942 18.133 18.8809 18.5805 19.1017 19.1997H22.179L24.1603 17.2184C24.06 17.0099 23.9997 16.7795 23.9997 16.5331C23.9997 15.651 24.7176 14.9331 25.5997 14.9331C26.4818 14.9331 27.1997 15.651 27.1997 16.5331C27.1997 17.4152 26.4818 18.133 25.5997 18.133C25.3533 18.133 25.1229 18.0728 24.9144 17.9725L22.7768 20.1101C22.6771 20.2103 22.5411 20.2663 22.3998 20.2663H19.1017C18.8809 20.8855 18.2942 21.333 17.5998 21.333C16.9054 21.333 16.3188 20.8855 16.098 20.2663H10.5679C10.4068 20.7181 10.0511 21.0738 9.59936 21.2349V28.8982C10.2185 29.119 10.666 29.7056 10.666 30.4C10.666 31.2821 9.94815 32 9.06603 32C8.1839 32 7.46604 31.2821 7.46604 30.4C7.46604 29.7056 7.91351 29.119 8.5327 28.8982ZM25.5997 17.0664C25.8936 17.0664 26.1331 16.8275 26.1331 16.5331C26.1331 16.2387 25.8936 15.9998 25.5997 15.9998C25.3059 15.9998 25.0664 16.2387 25.0664 16.5331C25.0664 16.8275 25.3059 17.0664 25.5997 17.0664ZM17.5998 20.2663C17.8937 20.2663 18.1331 20.0274 18.1331 19.733C18.1331 19.4386 17.8937 19.1997 17.5998 19.1997C17.3059 19.1997 17.0665 19.4386 17.0665 19.733C17.0665 20.0274 17.3059 20.2663 17.5998 20.2663ZM9.06656 30.9328C9.36042 30.9328 9.59989 30.6939 9.59989 30.3995C9.59989 30.1051 9.36042 29.8662 9.06656 29.8662C8.7727 29.8662 8.53323 30.1051 8.53323 30.3995C8.53323 30.6939 8.7727 30.9328 9.06656 30.9328ZM9.06656 20.2663C9.36042 20.2663 9.59989 20.0274 9.59989 19.733C9.59989 19.4386 9.36042 19.1997 9.06656 19.1997C8.7727 19.1997 8.53323 19.4386 8.53323 19.733C8.53323 20.0274 8.7727 20.2663 9.06656 20.2663Z" fill="#00B2FF"/>
<path d="M11.2007 10.7646V9.0665C11.2007 8.92464 11.2567 8.78918 11.357 8.68944L17.7612 2.28529C17.6609 2.07676 17.6007 1.84637 17.6007 1.59997C17.6007 0.717854 18.3185 0 19.2006 0C19.895 0 20.4817 0.447459 20.7025 1.06665H22.9339C23.2283 1.06665 23.4673 1.30504 23.4673 1.59997V2.97915L25.4486 4.96044C25.6571 4.86018 25.8875 4.79991 26.1339 4.79991C27.016 4.79991 27.7339 5.51777 27.7339 6.39989C27.7339 7.282 27.016 7.99986 26.1339 7.99986C25.2518 7.99986 24.5339 7.282 24.5339 6.39989C24.5339 6.15349 24.5942 5.92309 24.6945 5.71456L22.5569 3.577C22.4566 3.47727 22.4006 3.34181 22.4006 3.19994V2.1333H20.7025C20.4817 2.75248 19.895 3.19994 19.2006 3.19994C18.9542 3.19994 18.7238 3.13968 18.5153 3.03941L12.2674 9.2873V10.7646C12.8866 10.9854 13.334 11.5721 13.334 12.2664C13.334 13.1486 12.6162 13.8664 11.7341 13.8664C10.8519 13.8664 10.1341 13.1486 10.1341 12.2664C10.1341 11.5721 10.5815 10.9854 11.2007 10.7646ZM26.1339 6.93321C26.4278 6.93321 26.6672 6.69428 26.6672 6.39989C26.6672 6.10549 26.4278 5.86656 26.1339 5.86656C25.84 5.86656 25.6006 6.10549 25.6006 6.39989C25.6006 6.69428 25.84 6.93321 26.1339 6.93321ZM19.2006 2.1333C19.4945 2.1333 19.734 1.89437 19.734 1.59997C19.734 1.30558 19.4945 1.06665 19.2006 1.06665C18.9068 1.06665 18.6673 1.30558 18.6673 1.59997C18.6673 1.89437 18.9068 2.1333 19.2006 2.1333ZM11.7341 12.7998C12.0279 12.7998 12.2674 12.5608 12.2674 12.2664C12.2674 11.9721 12.0279 11.7331 11.7341 11.7331C11.4402 11.7331 11.2007 11.9721 11.2007 12.2664C11.2007 12.5608 11.4402 12.7998 11.7341 12.7998Z" fill="#00B2FF"/>
<path d="M12.8002 14.9331C13.4946 14.9331 14.0812 15.3805 14.302 15.9997H20.5793L23.623 12.956C23.7228 12.8558 23.8587 12.7998 24.0001 12.7998H29.6459L30.9333 11.5123V7.154L26.8187 3.03941C26.6102 3.13968 26.3798 3.19994 26.1334 3.19994C25.2513 3.19994 24.5334 2.48209 24.5334 1.59997C24.5334 0.717854 25.2513 0 26.1334 0C27.0155 0 27.7334 0.717854 27.7334 1.59997C27.7334 1.84637 27.6731 2.07676 27.5728 2.28529L31.8437 6.55615C31.944 6.65588 32 6.79134 32 6.93321V11.7331C32 11.875 31.944 12.0105 31.8437 12.1102L30.2438 13.7102C30.144 13.8104 30.008 13.8664 29.8667 13.8664H24.2209L21.1772 16.9101C21.0774 17.0104 20.9414 17.0664 20.8001 17.0664H14.302C14.0812 17.6855 13.4946 18.133 12.8002 18.133C11.9181 18.133 11.2002 17.4152 11.2002 16.533C11.2002 15.6509 11.9181 14.9331 12.8002 14.9331ZM26.1334 1.06665C25.8395 1.06665 25.6001 1.30558 25.6001 1.59997C25.6001 1.89437 25.8395 2.1333 26.1334 2.1333C26.4273 2.1333 26.6667 1.89437 26.6667 1.59997C26.6667 1.30558 26.4273 1.06665 26.1334 1.06665ZM12.8002 17.0664C13.0941 17.0664 13.3335 16.8274 13.3335 16.533C13.3335 16.2386 13.0941 15.9997 12.8002 15.9997C12.5063 15.9997 12.2669 16.2386 12.2669 16.533C12.2669 16.8274 12.5063 17.0664 12.8002 17.0664Z" fill="#00B2FF"/>
<path d="M1.60019 12.7999C1.84659 12.7999 2.07699 12.8602 2.28552 12.9604L4.26683 10.9791V7.90186C3.64764 7.68106 3.20017 7.09441 3.20017 6.40002C3.20017 5.5179 3.91803 4.80005 4.80016 4.80005C5.68228 4.80005 6.40014 5.5179 6.40014 6.40002C6.40014 7.09441 5.95268 7.68106 5.33349 7.90186V11.1999C5.33349 11.3418 5.27749 11.4773 5.17722 11.577L3.03964 13.7146C3.13991 13.9231 3.20017 14.1535 3.20017 14.3999C3.20017 15.0943 2.75271 15.6809 2.13352 15.9017V16.3124L6.24388 20.4227C6.34414 20.5224 6.40014 20.6579 6.40014 20.7998V21.4312C7.01933 21.652 7.4668 22.2387 7.4668 22.9331C7.4668 23.6274 7.01933 24.2141 6.40014 24.4349V25.6983C7.01933 25.9191 7.4668 26.5058 7.4668 27.2002C7.4668 28.0823 6.74894 28.8001 5.86681 28.8001C4.98469 28.8001 4.26683 28.0823 4.26683 27.2002C4.26683 26.5058 4.71429 25.9191 5.33349 25.6983V24.4349C4.71429 24.2141 4.26683 23.6274 4.26683 22.9331C4.26683 22.2387 4.71429 21.652 5.33349 21.4312V21.0206L1.22313 16.9102C1.12286 16.8105 1.06686 16.675 1.06686 16.5332V15.9017C0.447669 15.6809 0.000207424 15.0943 0.000207424 14.3999C0.000207424 13.5178 0.718067 12.7999 1.60019 12.7999ZM4.80016 6.93334C5.09402 6.93334 5.33349 6.69441 5.33349 6.40002C5.33349 6.10563 5.09402 5.8667 4.80016 5.8667C4.50629 5.8667 4.26683 6.10563 4.26683 6.40002C4.26683 6.69441 4.50629 6.93334 4.80016 6.93334ZM5.86681 27.733C6.16068 27.733 6.40014 27.494 6.40014 27.1996C6.40014 26.9052 6.16068 26.6663 5.86681 26.6663C5.57295 26.6663 5.33349 26.9052 5.33349 27.1996C5.33349 27.494 5.57295 27.733 5.86681 27.733ZM5.86681 23.4664C6.16068 23.4664 6.40014 23.2274 6.40014 22.9331C6.40014 22.6387 6.16068 22.3997 5.86681 22.3997C5.57295 22.3997 5.33349 22.6387 5.33349 22.9331C5.33349 23.2274 5.57295 23.4664 5.86681 23.4664ZM1.60019 14.9332C1.89405 14.9332 2.13352 14.6943 2.13352 14.3999C2.13352 14.1055 1.89405 13.8666 1.60019 13.8666C1.30633 13.8666 1.06686 14.1055 1.06686 14.3999C1.06686 14.6943 1.30633 14.9332 1.60019 14.9332Z" fill="#00B2FF"/>
</svg>
